<?xml version="1.0" encoding="UTF-8" standalone="no"?>
<!-- Created with Inkscape (http://www.inkscape.org/) -->

<svg
   width="254mm"
   height="137.58333mm"
   viewBox="0 0 254 137.58333"
   version="1.1"
   id="svg5"
   inkscape:version="1.2.2 (b0a8486541, 2022-12-01)"
   sodipodi:docname="model_structure.svg"
   xmlns:inkscape="http://www.inkscape.org/namespaces/inkscape"
   xmlns:sodipodi="http://sodipodi.sourceforge.net/DTD/sodipodi-0.dtd"
   xmlns="http://www.w3.org/2000/svg"
   xmlns:svg="http://www.w3.org/2000/svg">
  <sodipodi:namedview
     id="namedview7"
     pagecolor="#ffffff"
     bordercolor="#000000"
     borderopacity="0.25"
     inkscape:showpageshadow="2"
     inkscape:pageopacity="0.0"
     inkscape:pagecheckerboard="0"
     inkscape:deskcolor="#d1d1d1"
     inkscape:document-units="mm"
     showgrid="true"
     inkscape:zoom="0.5946522"
     inkscape:cx="851.75839"
     inkscape:cy="393.50733"
     inkscape:window-width="1614"
     inkscape:window-height="981"
     inkscape:window-x="1666"
     inkscape:window-y="32"
     inkscape:window-maximized="1"
     inkscape:current-layer="layer1">
    <inkscape:grid
       type="xygrid"
       id="grid132"
       originx="21.166666"
       originy="5.2916664" />
  </sodipodi:namedview>
  <defs
     id="defs2">
    <marker
       style="overflow:visible"
       id="marker6476"
       refX="0"
       refY="0"
       orient="auto-start-reverse"
       inkscape:stockid="Arrow2"
       markerWidth="7.6999998"
       markerHeight="5.5999999"
       viewBox="0 0 7.7 5.6"
       inkscape:isstock="true"
       inkscape:collect="always"
       preserveAspectRatio="xMidYMid">
      <path
         transform="scale(0.7)"
         d="M -2,-4 9,0 -2,4 c 2,-2.33 2,-5.66 0,-8 z"
         style="fill:context-stroke;fill-rule:evenodd;stroke:none"
         id="path6474" />
    </marker>
    <marker
       style="overflow:visible"
       id="marker3113"
       refX="0"
       refY="0"
       orient="auto-start-reverse"
       inkscape:stockid="Arrow2"
       markerWidth="7.6999998"
       markerHeight="5.5999999"
       viewBox="0 0 7.7 5.6"
       inkscape:isstock="true"
       inkscape:collect="always"
       preserveAspectRatio="xMidYMid">
      <path
         transform="scale(0.7)"
         d="M -2,-4 9,0 -2,4 c 2,-2.33 2,-5.66 0,-8 z"
         style="fill:context-stroke;fill-rule:evenodd;stroke:none"
         id="path3111" />
    </marker>
    <marker
       style="overflow:visible"
       id="marker1594"
       refX="0"
       refY="0"
       orient="auto-start-reverse"
       inkscape:stockid="Arrow2"
       markerWidth="7.6999998"
       markerHeight="5.5999999"
       viewBox="0 0 7.7 5.6"
       inkscape:isstock="true"
       inkscape:collect="always"
       preserveAspectRatio="xMidYMid">
      <path
         transform="scale(0.7)"
         d="M -2,-4 9,0 -2,4 c 2,-2.33 2,-5.66 0,-8 z"
         style="fill:context-stroke;fill-rule:evenodd;stroke:none"
         id="path1592" />
    </marker>
    <marker
       style="overflow:visible"
       id="marker1418"
       refX="0"
       refY="0"
       orient="auto-start-reverse"
       inkscape:stockid="Arrow2"
       markerWidth="7.6999998"
       markerHeight="5.5999999"
       viewBox="0 0 7.7 5.6"
       inkscape:isstock="true"
       inkscape:collect="always"
       preserveAspectRatio="xMidYMid">
      <path
         transform="scale(0.7)"
         d="M -2,-4 9,0 -2,4 c 2,-2.33 2,-5.66 0,-8 z"
         style="fill:context-stroke;fill-rule:evenodd;stroke:none"
         id="path1416" />
    </marker>
    <marker
       style="overflow:visible"
       id="Arrow2"
       refX="0"
       refY="0"
       orient="auto-start-reverse"
       inkscape:stockid="Arrow2"
       markerWidth="7.6999998"
       markerHeight="5.5999999"
       viewBox="0 0 7.7 5.6"
       inkscape:isstock="true"
       inkscape:collect="always"
       preserveAspectRatio="xMidYMid">
      <path
         transform="scale(0.7)"
         d="M -2,-4 9,0 -2,4 c 2,-2.33 2,-5.66 0,-8 z"
         style="fill:context-stroke;fill-rule:evenodd;stroke:none"
         id="arrow2L" />
    </marker>
    <clipPath
       id="clipPath5146">
      <path
         clip-rule="nonzero"
         d="m 29,0 h 3 v 11.953125 h -3 z m 0,0"
         id="path4022" />
    </clipPath>
    <clipPath
       id="clipPath3142">
      <path
         clip-rule="nonzero"
         d="m 44,0 h 4 v 11.953125 h -4 z m 0,0"
         id="path8969" />
    </clipPath>
    <clipPath
       id="clipPath5366">
      <path
         clip-rule="nonzero"
         d="m 55,0 h 3 v 11.953125 h -3 z m 0,0"
         id="path5737" />
    </clipPath>
    <clipPath
       id="clipPath7545">
      <path
         clip-rule="nonzero"
         d="m 76,0 h 4 v 11.953125 h -4 z m 0,0"
         id="path1902" />
    </clipPath>
    <clipPath
       id="clipPath1793">
      <path
         clip-rule="nonzero"
         d="m 96,0 h 7 v 11.953125 h -7 z m 0,0"
         id="path7674" />
    </clipPath>
    <clipPath
       id="clipPath3256">
      <path
         clip-rule="nonzero"
         d="m 104,0 h 3 v 11.953125 h -3 z m 0,0"
         id="path6454" />
    </clipPath>
    <clipPath
       id="clipPath4754">
      <path
         clip-rule="nonzero"
         d="m 114,0 h 4 v 11.953125 h -4 z m 0,0"
         id="path2193" />
    </clipPath>
    <clipPath
       id="clipPath2493">
      <path
         clip-rule="nonzero"
         d="m 11,0 h 4 v 11.953125 h -4 z m 0,0"
         id="path503" />
    </clipPath>
    <clipPath
       id="clipPath8013">
      <path
         clip-rule="nonzero"
         d="m 22,0 h 4 v 11.953125 h -4 z m 0,0"
         id="path4297" />
    </clipPath>
    <clipPath
       id="clipPath2571">
      <path
         clip-rule="nonzero"
         d="M 0,0 H 9 V 11.953125 H 0 Z m 0,0"
         id="path2609" />
    </clipPath>
    <clipPath
       id="clipPath2058">
      <path
         clip-rule="nonzero"
         d="m 10,0 h 4 v 11.953125 h -4 z m 0,0"
         id="path1576" />
    </clipPath>
    <clipPath
       id="clipPath468">
      <path
         clip-rule="nonzero"
         d="m 34,0 h 4 v 11.953125 h -4 z m 0,0"
         id="path1683" />
    </clipPath>
    <clipPath
       id="clipPath8888">
      <path
         clip-rule="nonzero"
         d="m 45,0 h 8 v 11.953125 h -8 z m 0,0"
         id="path4195" />
    </clipPath>
    <clipPath
       id="clipPath5709">
      <path
         clip-rule="nonzero"
         d="M 0,0 H 9 V 11.953125 H 0 Z m 0,0"
         id="path8249" />
    </clipPath>
    <clipPath
       id="clipPath6731">
      <path
         clip-rule="nonzero"
         d="m 10,0 h 4 v 11.953125 h -4 z m 0,0"
         id="path3363" />
    </clipPath>
    <clipPath
       id="clipPath3662">
      <path
         clip-rule="nonzero"
         d="m 21,0 h 4 v 11.953125 h -4 z m 0,0"
         id="path626" />
    </clipPath>
    <clipPath
       id="clipPath6313">
      <path
         clip-rule="nonzero"
         d="m 32,0 h 8 v 11.953125 h -8 z m 0,0"
         id="path3476" />
    </clipPath>
  </defs>
  <g
     inkscape:label="Layer 1"
     inkscape:groupmode="layer"
     id="layer1"
     transform="translate(21.166666,5.2916665)">
    <rect
       style="fill:#ffdcdc;fill-opacity:1;stroke:#000000;stroke-width:0.529"
       id="rect2673"
       width="50.270844"
       height="21.166666"
       x="116.41666"
       y="31.75" />
    <rect
       style="fill:#ffdcdc;fill-opacity:1;stroke:#000000;stroke-width:0.705556;stroke-dasharray:none"
       id="rect2803"
       width="50.270844"
       height="21.166666"
       x="82.020836"
       y="89.958336" />
    <rect
       style="fill:#dcdcff;fill-opacity:1;stroke:#000000;stroke-width:0.705556;stroke-dasharray:none"
       id="rect236"
       width="26.458332"
       height="21.166666"
       x="7.9375014"
       y="31.750002"
       ry="5.2916665" />
    <rect
       style="fill:#c8ffc8;fill-opacity:1;stroke:#000000;stroke-width:0.705556;stroke-dasharray:none"
       id="rect292"
       width="31.749998"
       height="10.583334"
       x="52.916668"
       y="47.625" />
    <rect
       style="fill:#c8ffc8;fill-opacity:1;stroke:#000000;stroke-width:0.705556;stroke-dasharray:none"
       id="rect348"
       width="31.749998"
       height="23.812502"
       x="52.916668"
       y="14.552083" />
    <circle
       style="fill:#c8c8c8;fill-opacity:1;stroke:#000000;stroke-width:0.705556;stroke-dasharray:none"
       id="path449"
       cx="100.54166"
       cy="41.274998"
       r="5.2916665" />
    <rect
       style="fill:none;stroke:#000000;stroke-width:0.705556;stroke-dasharray:none"
       id="rect451"
       width="50.270844"
       height="21.166666"
       x="116.41666"
       y="31.75" />
    <rect
       style="fill:#dcdcff;fill-opacity:1;stroke:#000000;stroke-width:0.705556;stroke-dasharray:none"
       id="rect453"
       width="26.458332"
       height="21.166666"
       x="185.20833"
       y="31.749998"
       ry="5.2916665" />
    <path
       style="fill:none;stroke:#000000;stroke-width:0.705556;stroke-dasharray:none;marker-start:url(#marker1418);marker-end:url(#Arrow2)"
       d="m 50.270833,52.916667 h -7.9375 V 42.333333 h -7.9375 m 0,0 h 7.9375 v -15.875 h 7.9375"
       id="path574"
       sodipodi:nodetypes="cccccccc" />
    <path
       style="fill:none;stroke:#000000;stroke-width:0.705556;stroke-dasharray:none;marker-end:url(#Arrow2)"
       d="M 84.666666,26.458333 H 100.54167 V 31.75"
       id="path576"
       sodipodi:nodetypes="ccc" />
    <path
       style="fill:none;stroke:#000000;stroke-width:0.705556;stroke-dasharray:none;marker-end:url(#Arrow2)"
       d="m 84.666666,52.916666 h 15.875004 l 0,-2.645833"
       id="path578"
       sodipodi:nodetypes="ccc" />
    <path
       style="fill:none;stroke:#000000;stroke-width:0.705556;stroke-dasharray:none;marker-end:url(#Arrow2)"
       d="M 105.83333,41.274999 H 111.125"
       id="path580"
       sodipodi:nodetypes="cc" />
    <path
       style="fill:none;stroke:#000000;stroke-width:0.705556;stroke-dasharray:none;marker-end:url(#Arrow2)"
       d="m 166.6875,42.333333 h 13.22917"
       id="path582"
       sodipodi:nodetypes="cc" />
    <rect
       style="fill:#dcdcff;fill-opacity:1;stroke:#000000;stroke-width:0.705556;stroke-dasharray:none"
       id="rect586"
       width="26.458334"
       height="21.16667"
       x="7.9375043"
       y="89.958336"
       ry="5.2916665" />
    <rect
       style="fill:#dcdcff;fill-opacity:1;stroke:#000000;stroke-width:0.705556;stroke-dasharray:none"
       id="rect588"
       width="26.458332"
       height="21.166666"
       x="185.20833"
       y="89.958336"
       ry="5.2916665" />
    <path
       style="fill:none;stroke:#000000;stroke-width:0.705556;stroke-dasharray:none;marker-end:url(#Arrow2)"
       d="M 34.395838,100.54167 H 76.729167"
       id="path590"
       sodipodi:nodetypes="cc" />
    <path
       style="fill:none;stroke:#000000;stroke-width:0.705556;stroke-dasharray:none;marker-end:url(#Arrow2)"
       d="m 132.29168,100.54167 h 47.62499"
       id="path592"
       sodipodi:nodetypes="cc" />
    <rect
       style="fill:none;stroke:#000000;stroke-width:0.705556;stroke-dasharray:none"
       id="rect1494"
       width="44.979172"
       height="15.875001"
       x="0"
       y="2.6458333" />
    <path
       style="fill:none;stroke:#000000;stroke-width:0.705556;stroke-dasharray:none;marker-end:url(#marker1594)"
       d="m 44.979167,7.9375 h 23.8125 v 3.96875"
       id="path1590"
       sodipodi:nodetypes="ccc" />
    <g
       inkscape:label=""
       transform="translate(121.75568,44.60434)"
       id="g2192">
      <g
         fill="#000000"
         fill-opacity="1"
         id="g61"
         transform="matrix(0.352778,0,0,0.352778,-0.347266,9.7028e-4)">
        <g
           id="use57"
           transform="translate(0,8.9659996)">
          <path
             d="m 7.875,-2.75 c 0.203125,0 0.421875,0 0.421875,-0.234375 0,-0.25 -0.21875,-0.25 -0.421875,-0.25 H 1.40625 c -0.203125,0 -0.421875,0 -0.421875,0.25 0,0.234375 0.21875,0.234375 0.421875,0.234375 z m 0,0"
             id="path137" />
        </g>
        <g
           id="use59"
           transform="translate(9.2987547,8.9659996)">
          <path
             d="m 9.328125,-7.90625 c 0.015625,-0.03125 0.0625,-0.109375 0.0625,-0.15625 0,-0.09375 -0.015625,-0.09375 -0.296875,-0.09375 h -8.25 c -0.265625,0 -0.28125,0 -0.28125,0.09375 0,0.046875 0.03125,0.125 0.0625,0.15625 l 4.03125,8.078125 c 0.078125,0.15625 0.109375,0.21875 0.3125,0.21875 0.203125,0 0.25,-0.0625 0.328125,-0.21875 z m -7.28125,0.609375 h 6.5625 l -3.28125,6.5625 z m 0,0"
             id="path141" />
        </g>
      </g>
      <g
         fill="#000000"
         fill-opacity="1"
         id="g65"
         transform="matrix(0.352778,0,0,0.352778,-0.347266,9.7028e-4)">
        <g
           id="use63"
           transform="translate(21.915077,8.9659996)">
          <path
             d="m 2.296875,-2.984375 c 0,-0.34375 -0.28125,-0.640625 -0.640625,-0.640625 -0.34375,0 -0.625,0.296875 -0.625,0.640625 0,0.34375 0.28125,0.625 0.625,0.625 0.359375,0 0.640625,-0.28125 0.640625,-0.625 z m 0,0"
             id="path145" />
        </g>
      </g>
      <g
         clip-path="url(#clipPath5146)"
         id="g71"
         transform="matrix(0.352778,0,0,0.352778,-0.347266,9.7028e-4)">
        <g
           fill="#000000"
           fill-opacity="1"
           id="g69">
          <g
             id="use67"
             transform="translate(27.895,8.9659996)">
            <path
               d="m 3.890625,2.90625 c 0,-0.03125 0,-0.0625 -0.203125,-0.265625 C 2.484375,1.4375 1.8125,-0.53125 1.8125,-2.96875 c 0,-2.328125 0.5625,-4.328125 1.953125,-5.734375 0.125,-0.109375 0.125,-0.125 0.125,-0.171875 0,-0.0625 -0.0625,-0.09375 -0.109375,-0.09375 -0.15625,0 -1.140625,0.859375 -1.71875,2.03125 -0.609375,1.21875 -0.890625,2.484375 -0.890625,3.96875 0,1.0625 0.171875,2.484375 0.78125,3.75 C 2.671875,2.21875 3.640625,3 3.78125,3 3.828125,3 3.890625,2.96875 3.890625,2.90625 Z m 0,0"
               id="path149" />
          </g>
        </g>
      </g>
      <g
         fill="#000000"
         fill-opacity="1"
         id="g75"
         transform="matrix(0.352778,0,0,0.352778,-0.347266,9.7028e-4)">
        <g
           id="use73"
           transform="translate(32.448002,8.9659996)">
          <path
             d="m 5.96875,-4.828125 c 0,-0.03125 -0.046875,-0.125 -0.046875,-0.171875 0,-0.015625 0,-0.015625 0.203125,-0.171875 l 1.171875,-0.90625 c 1.59375,-1.25 2.125,-1.671875 2.953125,-1.734375 0.07813,-0.015625 0.203125,-0.015625 0.203125,-0.21875 0,-0.078125 -0.04687,-0.125 -0.140625,-0.125 -0.125,0 -0.265625,0.015625 -0.40625,0.015625 H 9.453125 c -0.375,0 -0.765625,-0.015625 -1.125,-0.015625 -0.078125,0 -0.21875,0 -0.21875,0.203125 0,0.125 0.078125,0.140625 0.15625,0.140625 0.125,0 0.28125,0.0625 0.28125,0.21875 0,0.25 -0.359375,0.53125 -0.453125,0.59375 l -4.6875,3.65625 1,-3.953125 C 4.5,-7.703125 4.53125,-7.8125 5.375,-7.8125 c 0.234375,0 0.34375,0 0.34375,-0.234375 0,-0.109375 -0.125,-0.109375 -0.1875,-0.109375 -0.21875,0 -0.46875,0.015625 -0.6875,0.015625 H 3.4375 c -0.21875,0 -0.484375,-0.015625 -0.703125,-0.015625 -0.09375,0 -0.21875,0 -0.21875,0.21875 0,0.125 0.109375,0.125 0.28125,0.125 0.734375,0 0.734375,0.09375 0.734375,0.21875 0,0.03125 0,0.09375 -0.046875,0.28125 l -1.625,6.421875 C 1.75,-0.46875 1.734375,-0.34375 0.890625,-0.34375 c -0.21875,0 -0.34375,0 -0.34375,0.21875 C 0.546875,0 0.65625,0 0.734375,0 0.953125,0 1.1875,-0.03125 1.421875,-0.03125 h 1.40625 C 3.046875,-0.03125 3.296875,0 3.53125,0 3.625,0 3.75,0 3.75,-0.234375 3.75,-0.34375 3.640625,-0.34375 3.46875,-0.34375 c -0.734375,0 -0.734375,-0.09375 -0.734375,-0.21875 0,-0.078125 0.078125,-0.375 0.125,-0.578125 l 0.46875,-1.84375 1.8125,-1.421875 c 0.34375,0.765625 0.984375,2.296875 1.46875,3.46875 0.03125,0.0625 0.0625,0.140625 0.0625,0.21875 0,0.359375 -0.484375,0.375 -0.59375,0.375 -0.109375,0 -0.21875,0 -0.21875,0.21875 C 5.859375,0 5.984375,0 6.03125,0 6.4375,0 6.890625,-0.03125 7.296875,-0.03125 H 7.875 C 8.0625,-0.03125 8.265625,0 8.4375,0 8.515625,0 8.640625,0 8.640625,-0.234375 8.640625,-0.34375 8.53125,-0.34375 8.421875,-0.34375 7.96875,-0.359375 7.8125,-0.453125 7.640625,-0.890625 Z m 0,0"
             id="path153" />
        </g>
      </g>
      <g
         clip-path="url(#clipPath3142)"
         id="g81"
         transform="matrix(0.352778,0,0,0.352778,-0.347266,9.7028e-4)">
        <g
           fill="#000000"
           fill-opacity="1"
           id="g79">
          <g
             id="use77"
             transform="translate(43.264999,8.9659996)">
            <path
               d="m 3.890625,2.90625 c 0,-0.03125 0,-0.0625 -0.203125,-0.265625 C 2.484375,1.4375 1.8125,-0.53125 1.8125,-2.96875 c 0,-2.328125 0.5625,-4.328125 1.953125,-5.734375 0.125,-0.109375 0.125,-0.125 0.125,-0.171875 0,-0.0625 -0.0625,-0.09375 -0.109375,-0.09375 -0.15625,0 -1.140625,0.859375 -1.71875,2.03125 -0.609375,1.21875 -0.890625,2.484375 -0.890625,3.96875 0,1.0625 0.171875,2.484375 0.78125,3.75 C 2.671875,2.21875 3.640625,3 3.78125,3 3.828125,3 3.890625,2.96875 3.890625,2.90625 Z m 0,0"
               id="path157" />
          </g>
        </g>
      </g>
      <g
         fill="#000000"
         fill-opacity="1"
         id="g85"
         transform="matrix(0.352778,0,0,0.352778,-0.347266,9.7028e-4)">
        <g
           id="use83"
           transform="translate(47.818001,8.9659996)">
          <path
             d="m 5.671875,-4.875 c -0.390625,0.0625 -0.53125,0.359375 -0.53125,0.578125 0,0.296875 0.21875,0.390625 0.390625,0.390625 0.359375,0 0.609375,-0.3125 0.609375,-0.640625 0,-0.5 -0.578125,-0.71875 -1.078125,-0.71875 -0.71875,0 -1.125,0.71875 -1.234375,0.9375 -0.28125,-0.890625 -1.015625,-0.9375 -1.234375,-0.9375 -1.21875,0 -1.859375,1.5625 -1.859375,1.828125 0,0.046875 0.046875,0.109375 0.125,0.109375 0.09375,0 0.125,-0.078125 0.140625,-0.125 0.40625,-1.328125 1.21875,-1.578125 1.5625,-1.578125 0.53125,0 0.640625,0.5 0.640625,0.78125 0,0.265625 -0.078125,0.546875 -0.21875,1.125 L 2.578125,-1.5 c -0.171875,0.71875 -0.515625,1.375 -1.15625,1.375 -0.0625,0 -0.359375,0 -0.609375,-0.15625 C 1.25,-0.359375 1.34375,-0.71875 1.34375,-0.859375 1.34375,-1.09375 1.15625,-1.25 0.9375,-1.25 c -0.296875,0 -0.609375,0.265625 -0.609375,0.640625 0,0.5 0.5625,0.734375 1.078125,0.734375 0.578125,0 0.984375,-0.453125 1.234375,-0.953125 C 2.828125,-0.125 3.4375,0.125 3.875,0.125 5.09375,0.125 5.734375,-1.453125 5.734375,-1.703125 5.734375,-1.765625 5.6875,-1.8125 5.625,-1.8125 5.515625,-1.8125 5.5,-1.75 5.46875,-1.65625 5.140625,-0.609375 4.453125,-0.125 3.90625,-0.125 3.484375,-0.125 3.265625,-0.4375 3.265625,-0.921875 3.265625,-1.1875 3.3125,-1.375 3.5,-2.15625 L 3.921875,-3.796875 C 4.09375,-4.5 4.5,-5.03125 5.0625,-5.03125 c 0.015625,0 0.359375,0 0.609375,0.15625 z m 0,0"
             id="path161" />
        </g>
      </g>
      <g
         clip-path="url(#clipPath5366)"
         id="g91"
         transform="matrix(0.352778,0,0,0.352778,-0.347266,9.7028e-4)">
        <g
           fill="#000000"
           fill-opacity="1"
           id="g89">
          <g
             id="use87"
             transform="translate(54.470001,8.9659996)">
            <path
               d="M 3.375,-2.96875 C 3.375,-3.890625 3.25,-5.359375 2.578125,-6.75 1.875,-8.1875 0.890625,-8.96875 0.765625,-8.96875 c -0.046875,0 -0.109375,0.03125 -0.109375,0.09375 0,0.046875 0,0.0625 0.203125,0.265625 1.203125,1.203125 1.859375,3.1875 1.859375,5.625 0,2.3125 -0.5625,4.3125 -1.9375,5.71875 C 0.65625,2.84375 0.65625,2.875 0.65625,2.90625 0.65625,2.96875 0.71875,3 0.765625,3 0.921875,3 1.90625,2.140625 2.484375,0.96875 3.09375,-0.25 3.375,-1.546875 3.375,-2.96875 Z m 0,0"
               id="path165" />
          </g>
        </g>
      </g>
      <g
         fill="#000000"
         fill-opacity="1"
         id="g95"
         transform="matrix(0.352778,0,0,0.352778,-0.347266,9.7028e-4)">
        <g
           id="use93"
           transform="translate(59.021999,8.9659996)">
          <path
             d="m 9.328125,-7.90625 c 0.015625,-0.03125 0.0625,-0.109375 0.0625,-0.15625 0,-0.09375 -0.015625,-0.09375 -0.296875,-0.09375 h -8.25 c -0.265625,0 -0.28125,0 -0.28125,0.09375 0,0.046875 0.03125,0.125 0.0625,0.15625 l 4.03125,8.078125 c 0.078125,0.15625 0.109375,0.21875 0.3125,0.21875 0.203125,0 0.25,-0.0625 0.328125,-0.21875 z m -7.28125,0.609375 h 6.5625 l -3.28125,6.5625 z m 0,0"
             id="path169" />
        </g>
      </g>
      <g
         fill="#000000"
         fill-opacity="1"
         id="g99"
         transform="matrix(0.352778,0,0,0.352778,-0.347266,9.7028e-4)">
        <g
           id="use97"
           transform="translate(68.985001,8.9659996)">
          <path
             d="M 4.078125,-0.6875 C 4.234375,-0.03125 4.8125,0.125 5.09375,0.125 c 0.375,0 0.671875,-0.25 0.859375,-0.65625 0.203125,-0.4375 0.359375,-1.140625 0.359375,-1.171875 0,-0.0625 -0.046875,-0.109375 -0.125,-0.109375 -0.109375,0 -0.109375,0.0625 -0.15625,0.234375 C 5.8125,-0.75 5.59375,-0.125 5.109375,-0.125 4.75,-0.125 4.75,-0.515625 4.75,-0.671875 4.75,-0.9375 4.796875,-1.0625 4.90625,-1.5625 5,-1.890625 5.078125,-2.21875 5.15625,-2.546875 L 5.640625,-4.5 C 5.71875,-4.796875 5.71875,-4.8125 5.71875,-4.859375 c 0,-0.171875 -0.140625,-0.296875 -0.3125,-0.296875 -0.34375,0 -0.4375,0.296875 -0.5,0.609375 -0.125,0.453125 -0.765625,3.03125 -0.859375,3.453125 0,0 -0.46875,0.96875 -1.34375,0.96875 -0.625,0 -0.75,-0.53125 -0.75,-0.96875 0,-0.6875 0.34375,-1.640625 0.65625,-2.4375 C 2.75,-3.921875 2.8125,-4.078125 2.8125,-4.3125 c 0,-0.515625 -0.375,-0.953125 -0.953125,-0.953125 -1.09375,0 -1.53125,1.734375 -1.53125,1.828125 0,0.046875 0.046875,0.109375 0.125,0.109375 0.109375,0 0.125,-0.046875 0.171875,-0.21875 0.28125,-1.03125 0.75,-1.484375 1.203125,-1.484375 0.125,0 0.3125,0.015625 0.3125,0.390625 0,0.3125 -0.125,0.65625 -0.3125,1.109375 C 1.296875,-2.109375 1.25,-1.65625 1.25,-1.296875 1.25,-0.078125 2.15625,0.125 2.65625,0.125 c 0.765625,0 1.1875,-0.53125 1.421875,-0.8125 z m 0,0"
             id="path173" />
        </g>
      </g>
      <g
         clip-path="url(#clipPath7545)"
         id="g105"
         transform="matrix(0.352778,0,0,0.352778,-0.347266,9.7028e-4)">
        <g
           fill="#000000"
           fill-opacity="1"
           id="g103">
          <g
             id="use101"
             transform="translate(75.647003,8.9659996)">
            <path
               d="M 3.375,-2.96875 C 3.375,-3.890625 3.25,-5.359375 2.578125,-6.75 1.875,-8.1875 0.890625,-8.96875 0.765625,-8.96875 c -0.046875,0 -0.109375,0.03125 -0.109375,0.09375 0,0.046875 0,0.0625 0.203125,0.265625 1.203125,1.203125 1.859375,3.1875 1.859375,5.625 0,2.3125 -0.5625,4.3125 -1.9375,5.71875 C 0.65625,2.84375 0.65625,2.875 0.65625,2.90625 0.65625,2.96875 0.71875,3 0.765625,3 0.921875,3 1.90625,2.140625 2.484375,0.96875 3.09375,-0.25 3.375,-1.546875 3.375,-2.96875 Z m 0,0"
               id="path177" />
          </g>
        </g>
      </g>
      <g
         fill="#000000"
         fill-opacity="1"
         id="g109"
         transform="matrix(0.352778,0,0,0.352778,-0.347266,9.7028e-4)">
        <g
           id="use107"
           transform="translate(83.523087,8.9659996)">
          <path
             d="m 8.0625,-3.875 c 0.171875,0 0.390625,0 0.390625,-0.21875 C 8.453125,-4.3125 8.25,-4.3125 8.0625,-4.3125 H 1.03125 c -0.171875,0 -0.390625,0 -0.390625,0.21875 0,0.21875 0.203125,0.21875 0.390625,0.21875 z m 0,2.21875 c 0.171875,0 0.390625,0 0.390625,-0.203125 C 8.453125,-2.09375 8.25,-2.09375 8.0625,-2.09375 H 1.03125 c -0.171875,0 -0.390625,0 -0.390625,0.21875 0,0.21875 0.203125,0.21875 0.390625,0.21875 z m 0,0"
             id="path181" />
        </g>
      </g>
      <g
         clip-path="url(#clipPath1793)"
         id="g115"
         transform="matrix(0.352778,0,0,0.352778,-0.347266,9.7028e-4)">
        <g
           fill="#000000"
           fill-opacity="1"
           id="g113">
          <g
             id="use111"
             transform="translate(95.945999,8.9659996)">
            <path
               d="m 5.328125,-4.8125 c 0.234375,0 0.34375,0 0.34375,-0.21875 0,-0.125 -0.109375,-0.125 -0.3125,-0.125 H 4.390625 C 4.609375,-6.390625 4.78125,-7.234375 4.875,-7.609375 c 0.078125,-0.296875 0.328125,-0.5625 0.640625,-0.5625 0.25,0 0.5,0.109375 0.609375,0.21875 -0.453125,0.046875 -0.609375,0.390625 -0.609375,0.59375 0,0.234375 0.1875,0.375 0.40625,0.375 0.25,0 0.609375,-0.203125 0.609375,-0.65625 0,-0.5 -0.5,-0.78125 -1.03125,-0.78125 -0.515625,0 -1.015625,0.390625 -1.25,0.859375 -0.21875,0.421875 -0.34375,0.84375 -0.609375,2.40625 h -0.8125 c -0.21875,0 -0.34375,0 -0.34375,0.21875 0,0.125 0.078125,0.125 0.3125,0.125 H 3.5625 C 3.34375,-3.6875 2.859375,-0.984375 2.578125,0.28125 2.375,1.328125 2.203125,2.203125 1.609375,2.203125 1.5625,2.203125 1.21875,2.203125 1,1.96875 1.609375,1.921875 1.609375,1.40625 1.609375,1.390625 1.609375,1.140625 1.4375,1 1.203125,1 0.96875,1 0.609375,1.203125 0.609375,1.65625 c 0,0.515625 0.53125,0.78125 1,0.78125 1.21875,0 1.71875,-2.1875 1.84375,-2.78125 C 3.671875,-1.265625 4.25,-4.453125 4.3125,-4.8125 Z m 0,0"
               id="path185" />
          </g>
        </g>
      </g>
      <g
         clip-path="url(#clipPath3256)"
         id="g121"
         transform="matrix(0.352778,0,0,0.352778,-0.347266,9.7028e-4)">
        <g
           fill="#000000"
           fill-opacity="1"
           id="g119">
          <g
             id="use117"
             transform="translate(102.992,8.9659996)">
            <path
               d="m 3.890625,2.90625 c 0,-0.03125 0,-0.0625 -0.203125,-0.265625 C 2.484375,1.4375 1.8125,-0.53125 1.8125,-2.96875 c 0,-2.328125 0.5625,-4.328125 1.953125,-5.734375 0.125,-0.109375 0.125,-0.125 0.125,-0.171875 0,-0.0625 -0.0625,-0.09375 -0.109375,-0.09375 -0.15625,0 -1.140625,0.859375 -1.71875,2.03125 -0.609375,1.21875 -0.890625,2.484375 -0.890625,3.96875 0,1.0625 0.171875,2.484375 0.78125,3.75 C 2.671875,2.21875 3.640625,3 3.78125,3 3.828125,3 3.890625,2.96875 3.890625,2.90625 Z m 0,0"
               id="path189" />
          </g>
        </g>
      </g>
      <g
         fill="#000000"
         fill-opacity="1"
         id="g125"
         transform="matrix(0.352778,0,0,0.352778,-0.347266,9.7028e-4)">
        <g
           id="use123"
           transform="translate(107.545,8.9659996)">
          <path
             d="m 5.671875,-4.875 c -0.390625,0.0625 -0.53125,0.359375 -0.53125,0.578125 0,0.296875 0.21875,0.390625 0.390625,0.390625 0.359375,0 0.609375,-0.3125 0.609375,-0.640625 0,-0.5 -0.578125,-0.71875 -1.078125,-0.71875 -0.71875,0 -1.125,0.71875 -1.234375,0.9375 -0.28125,-0.890625 -1.015625,-0.9375 -1.234375,-0.9375 -1.21875,0 -1.859375,1.5625 -1.859375,1.828125 0,0.046875 0.046875,0.109375 0.125,0.109375 0.09375,0 0.125,-0.078125 0.140625,-0.125 0.40625,-1.328125 1.21875,-1.578125 1.5625,-1.578125 0.53125,0 0.640625,0.5 0.640625,0.78125 0,0.265625 -0.078125,0.546875 -0.21875,1.125 L 2.578125,-1.5 c -0.171875,0.71875 -0.515625,1.375 -1.15625,1.375 -0.0625,0 -0.359375,0 -0.609375,-0.15625 C 1.25,-0.359375 1.34375,-0.71875 1.34375,-0.859375 1.34375,-1.09375 1.15625,-1.25 0.9375,-1.25 c -0.296875,0 -0.609375,0.265625 -0.609375,0.640625 0,0.5 0.5625,0.734375 1.078125,0.734375 0.578125,0 0.984375,-0.453125 1.234375,-0.953125 C 2.828125,-0.125 3.4375,0.125 3.875,0.125 5.09375,0.125 5.734375,-1.453125 5.734375,-1.703125 5.734375,-1.765625 5.6875,-1.8125 5.625,-1.8125 5.515625,-1.8125 5.5,-1.75 5.46875,-1.65625 5.140625,-0.609375 4.453125,-0.125 3.90625,-0.125 3.484375,-0.125 3.265625,-0.4375 3.265625,-0.921875 3.265625,-1.1875 3.3125,-1.375 3.5,-2.15625 L 3.921875,-3.796875 C 4.09375,-4.5 4.5,-5.03125 5.0625,-5.03125 c 0.015625,0 0.359375,0 0.609375,0.15625 z m 0,0"
             id="path193" />
        </g>
      </g>
      <g
         clip-path="url(#clipPath4754)"
         id="g131"
         transform="matrix(0.352778,0,0,0.352778,-0.347266,9.7028e-4)">
        <g
           fill="#000000"
           fill-opacity="1"
           id="g129">
          <g
             id="use127"
             transform="translate(114.197,8.9659996)">
            <path
               d="M 3.375,-2.96875 C 3.375,-3.890625 3.25,-5.359375 2.578125,-6.75 1.875,-8.1875 0.890625,-8.96875 0.765625,-8.96875 c -0.046875,0 -0.109375,0.03125 -0.109375,0.09375 0,0.046875 0,0.0625 0.203125,0.265625 1.203125,1.203125 1.859375,3.1875 1.859375,5.625 0,2.3125 -0.5625,4.3125 -1.9375,5.71875 C 0.65625,2.84375 0.65625,2.875 0.65625,2.90625 0.65625,2.96875 0.71875,3 0.765625,3 0.921875,3 1.90625,2.140625 2.484375,0.96875 3.09375,-0.25 3.375,-1.546875 3.375,-2.96875 Z m 0,0"
               id="path197" />
          </g>
        </g>
      </g>
    </g>
    <g
       inkscape:label=""
       transform="translate(85.870451,101.61556)"
       id="g2913">
      <g
         fill="#000000"
         fill-opacity="1"
         id="g2813"
         transform="matrix(0.352778,0,0,0.352778,-0.347266,9.7028e-4)">
        <g
           id="g2807"
           transform="translate(0,8.9659996)">
          <path
             d="m 7.875,-2.75 c 0.203125,0 0.421875,0 0.421875,-0.234375 0,-0.25 -0.21875,-0.25 -0.421875,-0.25 H 1.40625 c -0.203125,0 -0.421875,0 -0.421875,0.25 0,0.234375 0.21875,0.234375 0.421875,0.234375 z m 0,0"
             id="path2805" />
        </g>
        <g
           id="g2811"
           transform="translate(9.2987547,8.9659996)">
          <path
             d="m 9.328125,-7.90625 c 0.015625,-0.03125 0.0625,-0.109375 0.0625,-0.15625 0,-0.09375 -0.015625,-0.09375 -0.296875,-0.09375 h -8.25 c -0.265625,0 -0.28125,0 -0.28125,0.09375 0,0.046875 0.03125,0.125 0.0625,0.15625 l 4.03125,8.078125 c 0.078125,0.15625 0.109375,0.21875 0.3125,0.21875 0.203125,0 0.25,-0.0625 0.328125,-0.21875 z m -7.28125,0.609375 h 6.5625 l -3.28125,6.5625 z m 0,0"
             id="path2809" />
        </g>
      </g>
      <g
         fill="#000000"
         fill-opacity="1"
         id="g2819"
         transform="matrix(0.352778,0,0,0.352778,-0.347266,9.7028e-4)">
        <g
           id="g2817"
           transform="translate(21.915077,8.9659996)">
          <path
             d="m 2.296875,-2.984375 c 0,-0.34375 -0.28125,-0.640625 -0.640625,-0.640625 -0.34375,0 -0.625,0.296875 -0.625,0.640625 0,0.34375 0.28125,0.625 0.625,0.625 0.359375,0 0.640625,-0.28125 0.640625,-0.625 z m 0,0"
             id="path2815" />
        </g>
      </g>
      <g
         clip-path="url(#clipPath5146)"
         id="g2827"
         transform="matrix(0.352778,0,0,0.352778,-0.347266,9.7028e-4)">
        <g
           fill="#000000"
           fill-opacity="1"
           id="g2825">
          <g
             id="g2823"
             transform="translate(27.895,8.9659996)">
            <path
               d="m 3.890625,2.90625 c 0,-0.03125 0,-0.0625 -0.203125,-0.265625 C 2.484375,1.4375 1.8125,-0.53125 1.8125,-2.96875 c 0,-2.328125 0.5625,-4.328125 1.953125,-5.734375 0.125,-0.109375 0.125,-0.125 0.125,-0.171875 0,-0.0625 -0.0625,-0.09375 -0.109375,-0.09375 -0.15625,0 -1.140625,0.859375 -1.71875,2.03125 -0.609375,1.21875 -0.890625,2.484375 -0.890625,3.96875 0,1.0625 0.171875,2.484375 0.78125,3.75 C 2.671875,2.21875 3.640625,3 3.78125,3 3.828125,3 3.890625,2.96875 3.890625,2.90625 Z m 0,0"
               id="path2821" />
          </g>
        </g>
      </g>
      <g
         fill="#000000"
         fill-opacity="1"
         id="g2833"
         transform="matrix(0.352778,0,0,0.352778,-0.347266,9.7028e-4)">
        <g
           id="g2831"
           transform="translate(32.448002,8.9659996)">
          <path
             d="m 5.96875,-4.828125 c 0,-0.03125 -0.046875,-0.125 -0.046875,-0.171875 0,-0.015625 0,-0.015625 0.203125,-0.171875 l 1.171875,-0.90625 c 1.59375,-1.25 2.125,-1.671875 2.953125,-1.734375 0.07813,-0.015625 0.203125,-0.015625 0.203125,-0.21875 0,-0.078125 -0.04687,-0.125 -0.140625,-0.125 -0.125,0 -0.265625,0.015625 -0.40625,0.015625 H 9.453125 c -0.375,0 -0.765625,-0.015625 -1.125,-0.015625 -0.078125,0 -0.21875,0 -0.21875,0.203125 0,0.125 0.078125,0.140625 0.15625,0.140625 0.125,0 0.28125,0.0625 0.28125,0.21875 0,0.25 -0.359375,0.53125 -0.453125,0.59375 l -4.6875,3.65625 1,-3.953125 C 4.5,-7.703125 4.53125,-7.8125 5.375,-7.8125 c 0.234375,0 0.34375,0 0.34375,-0.234375 0,-0.109375 -0.125,-0.109375 -0.1875,-0.109375 -0.21875,0 -0.46875,0.015625 -0.6875,0.015625 H 3.4375 c -0.21875,0 -0.484375,-0.015625 -0.703125,-0.015625 -0.09375,0 -0.21875,0 -0.21875,0.21875 0,0.125 0.109375,0.125 0.28125,0.125 0.734375,0 0.734375,0.09375 0.734375,0.21875 0,0.03125 0,0.09375 -0.046875,0.28125 l -1.625,6.421875 C 1.75,-0.46875 1.734375,-0.34375 0.890625,-0.34375 c -0.21875,0 -0.34375,0 -0.34375,0.21875 C 0.546875,0 0.65625,0 0.734375,0 0.953125,0 1.1875,-0.03125 1.421875,-0.03125 h 1.40625 C 3.046875,-0.03125 3.296875,0 3.53125,0 3.625,0 3.75,0 3.75,-0.234375 3.75,-0.34375 3.640625,-0.34375 3.46875,-0.34375 c -0.734375,0 -0.734375,-0.09375 -0.734375,-0.21875 0,-0.078125 0.078125,-0.375 0.125,-0.578125 l 0.46875,-1.84375 1.8125,-1.421875 c 0.34375,0.765625 0.984375,2.296875 1.46875,3.46875 0.03125,0.0625 0.0625,0.140625 0.0625,0.21875 0,0.359375 -0.484375,0.375 -0.59375,0.375 -0.109375,0 -0.21875,0 -0.21875,0.21875 C 5.859375,0 5.984375,0 6.03125,0 6.4375,0 6.890625,-0.03125 7.296875,-0.03125 H 7.875 C 8.0625,-0.03125 8.265625,0 8.4375,0 8.515625,0 8.640625,0 8.640625,-0.234375 8.640625,-0.34375 8.53125,-0.34375 8.421875,-0.34375 7.96875,-0.359375 7.8125,-0.453125 7.640625,-0.890625 Z m 0,0"
             id="path2829" />
        </g>
      </g>
      <g
         clip-path="url(#clipPath3142)"
         id="g2841"
         transform="matrix(0.352778,0,0,0.352778,-0.347266,9.7028e-4)">
        <g
           fill="#000000"
           fill-opacity="1"
           id="g2839">
          <g
             id="g2837"
             transform="translate(43.264999,8.9659996)">
            <path
               d="m 3.890625,2.90625 c 0,-0.03125 0,-0.0625 -0.203125,-0.265625 C 2.484375,1.4375 1.8125,-0.53125 1.8125,-2.96875 c 0,-2.328125 0.5625,-4.328125 1.953125,-5.734375 0.125,-0.109375 0.125,-0.125 0.125,-0.171875 0,-0.0625 -0.0625,-0.09375 -0.109375,-0.09375 -0.15625,0 -1.140625,0.859375 -1.71875,2.03125 -0.609375,1.21875 -0.890625,2.484375 -0.890625,3.96875 0,1.0625 0.171875,2.484375 0.78125,3.75 C 2.671875,2.21875 3.640625,3 3.78125,3 3.828125,3 3.890625,2.96875 3.890625,2.90625 Z m 0,0"
               id="path2835" />
          </g>
        </g>
      </g>
      <g
         fill="#000000"
         fill-opacity="1"
         id="g2847"
         transform="matrix(0.352778,0,0,0.352778,-0.347266,9.7028e-4)">
        <g
           id="g2845"
           transform="translate(47.818001,8.9659996)">
          <path
             d="m 5.671875,-4.875 c -0.390625,0.0625 -0.53125,0.359375 -0.53125,0.578125 0,0.296875 0.21875,0.390625 0.390625,0.390625 0.359375,0 0.609375,-0.3125 0.609375,-0.640625 0,-0.5 -0.578125,-0.71875 -1.078125,-0.71875 -0.71875,0 -1.125,0.71875 -1.234375,0.9375 -0.28125,-0.890625 -1.015625,-0.9375 -1.234375,-0.9375 -1.21875,0 -1.859375,1.5625 -1.859375,1.828125 0,0.046875 0.046875,0.109375 0.125,0.109375 0.09375,0 0.125,-0.078125 0.140625,-0.125 0.40625,-1.328125 1.21875,-1.578125 1.5625,-1.578125 0.53125,0 0.640625,0.5 0.640625,0.78125 0,0.265625 -0.078125,0.546875 -0.21875,1.125 L 2.578125,-1.5 c -0.171875,0.71875 -0.515625,1.375 -1.15625,1.375 -0.0625,0 -0.359375,0 -0.609375,-0.15625 C 1.25,-0.359375 1.34375,-0.71875 1.34375,-0.859375 1.34375,-1.09375 1.15625,-1.25 0.9375,-1.25 c -0.296875,0 -0.609375,0.265625 -0.609375,0.640625 0,0.5 0.5625,0.734375 1.078125,0.734375 0.578125,0 0.984375,-0.453125 1.234375,-0.953125 C 2.828125,-0.125 3.4375,0.125 3.875,0.125 5.09375,0.125 5.734375,-1.453125 5.734375,-1.703125 5.734375,-1.765625 5.6875,-1.8125 5.625,-1.8125 5.515625,-1.8125 5.5,-1.75 5.46875,-1.65625 5.140625,-0.609375 4.453125,-0.125 3.90625,-0.125 3.484375,-0.125 3.265625,-0.4375 3.265625,-0.921875 3.265625,-1.1875 3.3125,-1.375 3.5,-2.15625 L 3.921875,-3.796875 C 4.09375,-4.5 4.5,-5.03125 5.0625,-5.03125 c 0.015625,0 0.359375,0 0.609375,0.15625 z m 0,0"
             id="path2843" />
        </g>
      </g>
      <g
         clip-path="url(#clipPath5366)"
         id="g2855"
         transform="matrix(0.352778,0,0,0.352778,-0.347266,9.7028e-4)">
        <g
           fill="#000000"
           fill-opacity="1"
           id="g2853">
          <g
             id="g2851"
             transform="translate(54.470001,8.9659996)">
            <path
               d="M 3.375,-2.96875 C 3.375,-3.890625 3.25,-5.359375 2.578125,-6.75 1.875,-8.1875 0.890625,-8.96875 0.765625,-8.96875 c -0.046875,0 -0.109375,0.03125 -0.109375,0.09375 0,0.046875 0,0.0625 0.203125,0.265625 1.203125,1.203125 1.859375,3.1875 1.859375,5.625 0,2.3125 -0.5625,4.3125 -1.9375,5.71875 C 0.65625,2.84375 0.65625,2.875 0.65625,2.90625 0.65625,2.96875 0.71875,3 0.765625,3 0.921875,3 1.90625,2.140625 2.484375,0.96875 3.09375,-0.25 3.375,-1.546875 3.375,-2.96875 Z m 0,0"
               id="path2849" />
          </g>
        </g>
      </g>
      <g
         fill="#000000"
         fill-opacity="1"
         id="g2861"
         transform="matrix(0.352778,0,0,0.352778,-0.347266,9.7028e-4)">
        <g
           id="g2859"
           transform="translate(59.021999,8.9659996)">
          <path
             d="m 9.328125,-7.90625 c 0.015625,-0.03125 0.0625,-0.109375 0.0625,-0.15625 0,-0.09375 -0.015625,-0.09375 -0.296875,-0.09375 h -8.25 c -0.265625,0 -0.28125,0 -0.28125,0.09375 0,0.046875 0.03125,0.125 0.0625,0.15625 l 4.03125,8.078125 c 0.078125,0.15625 0.109375,0.21875 0.3125,0.21875 0.203125,0 0.25,-0.0625 0.328125,-0.21875 z m -7.28125,0.609375 h 6.5625 l -3.28125,6.5625 z m 0,0"
             id="path2857" />
        </g>
      </g>
      <g
         fill="#000000"
         fill-opacity="1"
         id="g2867"
         transform="matrix(0.352778,0,0,0.352778,-0.347266,9.7028e-4)">
        <g
           id="g2865"
           transform="translate(68.985001,8.9659996)">
          <path
             d="M 4.078125,-0.6875 C 4.234375,-0.03125 4.8125,0.125 5.09375,0.125 c 0.375,0 0.671875,-0.25 0.859375,-0.65625 0.203125,-0.4375 0.359375,-1.140625 0.359375,-1.171875 0,-0.0625 -0.046875,-0.109375 -0.125,-0.109375 -0.109375,0 -0.109375,0.0625 -0.15625,0.234375 C 5.8125,-0.75 5.59375,-0.125 5.109375,-0.125 4.75,-0.125 4.75,-0.515625 4.75,-0.671875 4.75,-0.9375 4.796875,-1.0625 4.90625,-1.5625 5,-1.890625 5.078125,-2.21875 5.15625,-2.546875 L 5.640625,-4.5 C 5.71875,-4.796875 5.71875,-4.8125 5.71875,-4.859375 c 0,-0.171875 -0.140625,-0.296875 -0.3125,-0.296875 -0.34375,0 -0.4375,0.296875 -0.5,0.609375 -0.125,0.453125 -0.765625,3.03125 -0.859375,3.453125 0,0 -0.46875,0.96875 -1.34375,0.96875 -0.625,0 -0.75,-0.53125 -0.75,-0.96875 0,-0.6875 0.34375,-1.640625 0.65625,-2.4375 C 2.75,-3.921875 2.8125,-4.078125 2.8125,-4.3125 c 0,-0.515625 -0.375,-0.953125 -0.953125,-0.953125 -1.09375,0 -1.53125,1.734375 -1.53125,1.828125 0,0.046875 0.046875,0.109375 0.125,0.109375 0.109375,0 0.125,-0.046875 0.171875,-0.21875 0.28125,-1.03125 0.75,-1.484375 1.203125,-1.484375 0.125,0 0.3125,0.015625 0.3125,0.390625 0,0.3125 -0.125,0.65625 -0.3125,1.109375 C 1.296875,-2.109375 1.25,-1.65625 1.25,-1.296875 1.25,-0.078125 2.15625,0.125 2.65625,0.125 c 0.765625,0 1.1875,-0.53125 1.421875,-0.8125 z m 0,0"
             id="path2863" />
        </g>
      </g>
      <g
         clip-path="url(#clipPath7545)"
         id="g2875"
         transform="matrix(0.352778,0,0,0.352778,-0.347266,9.7028e-4)">
        <g
           fill="#000000"
           fill-opacity="1"
           id="g2873">
          <g
             id="g2871"
             transform="translate(75.647003,8.9659996)">
            <path
               d="M 3.375,-2.96875 C 3.375,-3.890625 3.25,-5.359375 2.578125,-6.75 1.875,-8.1875 0.890625,-8.96875 0.765625,-8.96875 c -0.046875,0 -0.109375,0.03125 -0.109375,0.09375 0,0.046875 0,0.0625 0.203125,0.265625 1.203125,1.203125 1.859375,3.1875 1.859375,5.625 0,2.3125 -0.5625,4.3125 -1.9375,5.71875 C 0.65625,2.84375 0.65625,2.875 0.65625,2.90625 0.65625,2.96875 0.71875,3 0.765625,3 0.921875,3 1.90625,2.140625 2.484375,0.96875 3.09375,-0.25 3.375,-1.546875 3.375,-2.96875 Z m 0,0"
               id="path2869" />
          </g>
        </g>
      </g>
      <g
         fill="#000000"
         fill-opacity="1"
         id="g2881"
         transform="matrix(0.352778,0,0,0.352778,-0.347266,9.7028e-4)">
        <g
           id="g2879"
           transform="translate(83.523087,8.9659996)">
          <path
             d="m 8.0625,-3.875 c 0.171875,0 0.390625,0 0.390625,-0.21875 C 8.453125,-4.3125 8.25,-4.3125 8.0625,-4.3125 H 1.03125 c -0.171875,0 -0.390625,0 -0.390625,0.21875 0,0.21875 0.203125,0.21875 0.390625,0.21875 z m 0,2.21875 c 0.171875,0 0.390625,0 0.390625,-0.203125 C 8.453125,-2.09375 8.25,-2.09375 8.0625,-2.09375 H 1.03125 c -0.171875,0 -0.390625,0 -0.390625,0.21875 0,0.21875 0.203125,0.21875 0.390625,0.21875 z m 0,0"
             id="path2877" />
        </g>
      </g>
      <g
         clip-path="url(#clipPath1793)"
         id="g2889"
         transform="matrix(0.352778,0,0,0.352778,-0.347266,9.7028e-4)">
        <g
           fill="#000000"
           fill-opacity="1"
           id="g2887">
          <g
             id="g2885"
             transform="translate(95.945999,8.9659996)">
            <path
               d="m 5.328125,-4.8125 c 0.234375,0 0.34375,0 0.34375,-0.21875 0,-0.125 -0.109375,-0.125 -0.3125,-0.125 H 4.390625 C 4.609375,-6.390625 4.78125,-7.234375 4.875,-7.609375 c 0.078125,-0.296875 0.328125,-0.5625 0.640625,-0.5625 0.25,0 0.5,0.109375 0.609375,0.21875 -0.453125,0.046875 -0.609375,0.390625 -0.609375,0.59375 0,0.234375 0.1875,0.375 0.40625,0.375 0.25,0 0.609375,-0.203125 0.609375,-0.65625 0,-0.5 -0.5,-0.78125 -1.03125,-0.78125 -0.515625,0 -1.015625,0.390625 -1.25,0.859375 -0.21875,0.421875 -0.34375,0.84375 -0.609375,2.40625 h -0.8125 c -0.21875,0 -0.34375,0 -0.34375,0.21875 0,0.125 0.078125,0.125 0.3125,0.125 H 3.5625 C 3.34375,-3.6875 2.859375,-0.984375 2.578125,0.28125 2.375,1.328125 2.203125,2.203125 1.609375,2.203125 1.5625,2.203125 1.21875,2.203125 1,1.96875 1.609375,1.921875 1.609375,1.40625 1.609375,1.390625 1.609375,1.140625 1.4375,1 1.203125,1 0.96875,1 0.609375,1.203125 0.609375,1.65625 c 0,0.515625 0.53125,0.78125 1,0.78125 1.21875,0 1.71875,-2.1875 1.84375,-2.78125 C 3.671875,-1.265625 4.25,-4.453125 4.3125,-4.8125 Z m 0,0"
               id="path2883" />
          </g>
        </g>
      </g>
      <g
         clip-path="url(#clipPath3256)"
         id="g2897"
         transform="matrix(0.352778,0,0,0.352778,-0.347266,9.7028e-4)">
        <g
           fill="#000000"
           fill-opacity="1"
           id="g2895">
          <g
             id="g2893"
             transform="translate(102.992,8.9659996)">
            <path
               d="m 3.890625,2.90625 c 0,-0.03125 0,-0.0625 -0.203125,-0.265625 C 2.484375,1.4375 1.8125,-0.53125 1.8125,-2.96875 c 0,-2.328125 0.5625,-4.328125 1.953125,-5.734375 0.125,-0.109375 0.125,-0.125 0.125,-0.171875 0,-0.0625 -0.0625,-0.09375 -0.109375,-0.09375 -0.15625,0 -1.140625,0.859375 -1.71875,2.03125 -0.609375,1.21875 -0.890625,2.484375 -0.890625,3.96875 0,1.0625 0.171875,2.484375 0.78125,3.75 C 2.671875,2.21875 3.640625,3 3.78125,3 3.828125,3 3.890625,2.96875 3.890625,2.90625 Z m 0,0"
               id="path2891" />
          </g>
        </g>
      </g>
      <g
         fill="#000000"
         fill-opacity="1"
         id="g2903"
         transform="matrix(0.352778,0,0,0.352778,-0.347266,9.7028e-4)">
        <g
           id="g2901"
           transform="translate(107.545,8.9659996)">
          <path
             d="m 5.671875,-4.875 c -0.390625,0.0625 -0.53125,0.359375 -0.53125,0.578125 0,0.296875 0.21875,0.390625 0.390625,0.390625 0.359375,0 0.609375,-0.3125 0.609375,-0.640625 0,-0.5 -0.578125,-0.71875 -1.078125,-0.71875 -0.71875,0 -1.125,0.71875 -1.234375,0.9375 -0.28125,-0.890625 -1.015625,-0.9375 -1.234375,-0.9375 -1.21875,0 -1.859375,1.5625 -1.859375,1.828125 0,0.046875 0.046875,0.109375 0.125,0.109375 0.09375,0 0.125,-0.078125 0.140625,-0.125 0.40625,-1.328125 1.21875,-1.578125 1.5625,-1.578125 0.53125,0 0.640625,0.5 0.640625,0.78125 0,0.265625 -0.078125,0.546875 -0.21875,1.125 L 2.578125,-1.5 c -0.171875,0.71875 -0.515625,1.375 -1.15625,1.375 -0.0625,0 -0.359375,0 -0.609375,-0.15625 C 1.25,-0.359375 1.34375,-0.71875 1.34375,-0.859375 1.34375,-1.09375 1.15625,-1.25 0.9375,-1.25 c -0.296875,0 -0.609375,0.265625 -0.609375,0.640625 0,0.5 0.5625,0.734375 1.078125,0.734375 0.578125,0 0.984375,-0.453125 1.234375,-0.953125 C 2.828125,-0.125 3.4375,0.125 3.875,0.125 5.09375,0.125 5.734375,-1.453125 5.734375,-1.703125 5.734375,-1.765625 5.6875,-1.8125 5.625,-1.8125 5.515625,-1.8125 5.5,-1.75 5.46875,-1.65625 5.140625,-0.609375 4.453125,-0.125 3.90625,-0.125 3.484375,-0.125 3.265625,-0.4375 3.265625,-0.921875 3.265625,-1.1875 3.3125,-1.375 3.5,-2.15625 L 3.921875,-3.796875 C 4.09375,-4.5 4.5,-5.03125 5.0625,-5.03125 c 0.015625,0 0.359375,0 0.609375,0.15625 z m 0,0"
             id="path2899" />
        </g>
      </g>
      <g
         clip-path="url(#clipPath4754)"
         id="g2911"
         transform="matrix(0.352778,0,0,0.352778,-0.347266,9.7028e-4)">
        <g
           fill="#000000"
           fill-opacity="1"
           id="g2909">
          <g
             id="g2907"
             transform="translate(114.197,8.9659996)">
            <path
               d="M 3.375,-2.96875 C 3.375,-3.890625 3.25,-5.359375 2.578125,-6.75 1.875,-8.1875 0.890625,-8.96875 0.765625,-8.96875 c -0.046875,0 -0.109375,0.03125 -0.109375,0.09375 0,0.046875 0,0.0625 0.203125,0.265625 1.203125,1.203125 1.859375,3.1875 1.859375,5.625 0,2.3125 -0.5625,4.3125 -1.9375,5.71875 C 0.65625,2.84375 0.65625,2.875 0.65625,2.90625 0.65625,2.96875 0.71875,3 0.765625,3 0.921875,3 1.90625,2.140625 2.484375,0.96875 3.09375,-0.25 3.375,-1.546875 3.375,-2.96875 Z m 0,0"
               id="path2905" />
          </g>
        </g>
      </g>
    </g>
    <text
       xml:space="preserve"
       style="font-size:6.35px;font-family:arial;-inkscape-font-specification:arial;text-align:center;text-anchor:middle;fill:none;stroke:#000000;stroke-width:0.529"
       x="100.50327"
       y="43.159893"
       id="text3055"><tspan
         sodipodi:role="line"
         id="tspan3053"
         style="font-weight:normal;font-size:6.35px;stroke-width:0.529"
         x="100.50327"
         y="43.159893">+</tspan></text>
    <path
       style="fill:none;stroke:#000000;stroke-width:0.529;marker-end:url(#marker3113)"
       d="M 124.35417,26.458333 H 158.75"
       id="path3107" />
    <path
       style="fill:none;stroke:#000000;stroke-width:0.529;marker-end:url(#marker3113)"
       d="M 158.75,58.208333 H 124.35417"
       id="path3109" />
    <text
       xml:space="preserve"
       style="font-size:5.64444px;font-family:arial;-inkscape-font-specification:arial;text-align:center;text-anchor:middle;fill:none;stroke:#000000;stroke-width:0.529"
       x="140.22917"
       y="21.166666"
       id="text3195"><tspan
         sodipodi:role="line"
         id="tspan3193"
         style="font-size:5.64444px;fill:#000000;fill-opacity:1;stroke:none;stroke-width:0.529"
         x="140.22917"
         y="21.166666">forward solve</tspan></text>
    <text
       xml:space="preserve"
       style="font-size:5.64444px;font-family:arial;-inkscape-font-specification:arial;text-align:center;text-anchor:middle;fill:none;stroke:#000000;stroke-width:0.529"
       x="140.22917"
       y="66.145836"
       id="text3199"><tspan
         sodipodi:role="line"
         id="tspan3197"
         style="font-size:5.64444px;fill:#000000;fill-opacity:1;stroke:none;stroke-width:0.529"
         x="140.22917"
         y="66.145836">adjoint solve</tspan></text>
    <text
       xml:space="preserve"
       style="font-size:4.93889px;font-family:arial;-inkscape-font-specification:arial;text-align:center;text-anchor:middle;fill:#000000;fill-opacity:1;stroke:none;stroke-width:0.529"
       x="142.875"
       y="39.6875"
       id="text3203"><tspan
         sodipodi:role="line"
         id="tspan3201"
         style="font-size:4.93889px;stroke-width:0.529"
         x="142.875"
         y="39.6875">low-resolution PDE</tspan></text>
    <text
       xml:space="preserve"
       style="font-size:4.93889px;font-family:arial;-inkscape-font-specification:arial;text-align:center;text-anchor:middle;fill:#000000;fill-opacity:1;stroke:none;stroke-width:0.529"
       x="105.83335"
       y="97.895836"
       id="text3981"><tspan
         sodipodi:role="line"
         id="tspan3979"
         style="font-size:4.93889px;stroke-width:0.529"
         x="105.83335"
         y="97.895836">high-resolution PDE</tspan></text>
    <text
       xml:space="preserve"
       style="font-size:4.9389px;font-family:arial;-inkscape-font-specification:arial;text-align:center;text-anchor:middle;fill:#000000;fill-opacity:1;stroke:none;stroke-width:0.529"
       x="21.166666"
       y="39.6875"
       id="text3985"><tspan
         sodipodi:role="line"
         style="stroke-width:0.529"
         x="21.166666"
         y="39.6875"
         id="tspan3987">input</tspan></text>
    <text
       xml:space="preserve"
       style="font-size:4.9389px;font-family:arial;-inkscape-font-specification:arial;text-align:center;text-anchor:middle;fill:#000000;fill-opacity:1;stroke:none;stroke-width:0.529"
       x="21.166672"
       y="97.895836"
       id="text3993"><tspan
         sodipodi:role="line"
         style="stroke-width:0.529"
         x="21.166672"
         y="97.895836"
         id="tspan3991">input</tspan></text>
    <g
       inkscape:label=""
       transform="translate(17.216217,102.62526)"
       id="g4742">
      <g
         fill="#000000"
         fill-opacity="1"
         id="g26"
         transform="matrix(0.352778,0,0,0.352778,-0.192925,9.7028e-4)">
        <g
           id="use24"
           transform="translate(0,8.9659996)">
          <path
             d="m 5.96875,-4.828125 c 0,-0.03125 -0.046875,-0.125 -0.046875,-0.171875 0,-0.015625 0,-0.015625 0.203125,-0.171875 l 1.171875,-0.90625 c 1.59375,-1.25 2.125,-1.671875 2.953125,-1.734375 0.07813,-0.015625 0.203125,-0.015625 0.203125,-0.21875 0,-0.078125 -0.04687,-0.125 -0.140625,-0.125 -0.125,0 -0.265625,0.015625 -0.40625,0.015625 H 9.453125 c -0.375,0 -0.765625,-0.015625 -1.125,-0.015625 -0.078125,0 -0.21875,0 -0.21875,0.203125 0,0.125 0.078125,0.140625 0.15625,0.140625 0.125,0 0.28125,0.0625 0.28125,0.21875 0,0.25 -0.359375,0.53125 -0.453125,0.59375 l -4.6875,3.65625 1,-3.953125 C 4.5,-7.703125 4.53125,-7.8125 5.375,-7.8125 c 0.234375,0 0.34375,0 0.34375,-0.234375 0,-0.109375 -0.125,-0.109375 -0.1875,-0.109375 -0.21875,0 -0.46875,0.015625 -0.6875,0.015625 H 3.4375 c -0.21875,0 -0.484375,-0.015625 -0.703125,-0.015625 -0.09375,0 -0.21875,0 -0.21875,0.21875 0,0.125 0.109375,0.125 0.28125,0.125 0.734375,0 0.734375,0.09375 0.734375,0.21875 0,0.03125 0,0.09375 -0.046875,0.28125 l -1.625,6.421875 C 1.75,-0.46875 1.734375,-0.34375 0.890625,-0.34375 c -0.21875,0 -0.34375,0 -0.34375,0.21875 C 0.546875,0 0.65625,0 0.734375,0 0.953125,0 1.1875,-0.03125 1.421875,-0.03125 h 1.40625 C 3.046875,-0.03125 3.296875,0 3.53125,0 3.625,0 3.75,0 3.75,-0.234375 3.75,-0.34375 3.640625,-0.34375 3.46875,-0.34375 c -0.734375,0 -0.734375,-0.09375 -0.734375,-0.21875 0,-0.078125 0.078125,-0.375 0.125,-0.578125 l 0.46875,-1.84375 1.8125,-1.421875 c 0.34375,0.765625 0.984375,2.296875 1.46875,3.46875 0.03125,0.0625 0.0625,0.140625 0.0625,0.21875 0,0.359375 -0.484375,0.375 -0.59375,0.375 -0.109375,0 -0.21875,0 -0.21875,0.21875 C 5.859375,0 5.984375,0 6.03125,0 6.4375,0 6.890625,-0.03125 7.296875,-0.03125 H 7.875 C 8.0625,-0.03125 8.265625,0 8.4375,0 8.515625,0 8.640625,0 8.640625,-0.234375 8.640625,-0.34375 8.53125,-0.34375 8.421875,-0.34375 7.96875,-0.359375 7.8125,-0.453125 7.640625,-0.890625 Z m 0,0"
             id="path48" />
        </g>
      </g>
      <g
         clip-path="url(#clipPath2493)"
         id="g32"
         transform="matrix(0.352778,0,0,0.352778,-0.192925,9.7028e-4)">
        <g
           fill="#000000"
           fill-opacity="1"
           id="g30">
          <g
             id="use28"
             transform="translate(10.818,8.9659996)">
            <path
               d="m 3.890625,2.90625 c 0,-0.03125 0,-0.0625 -0.203125,-0.265625 C 2.484375,1.4375 1.8125,-0.53125 1.8125,-2.96875 c 0,-2.328125 0.5625,-4.328125 1.953125,-5.734375 0.125,-0.109375 0.125,-0.125 0.125,-0.171875 0,-0.0625 -0.0625,-0.09375 -0.109375,-0.09375 -0.15625,0 -1.140625,0.859375 -1.71875,2.03125 -0.609375,1.21875 -0.890625,2.484375 -0.890625,3.96875 0,1.0625 0.171875,2.484375 0.78125,3.75 C 2.671875,2.21875 3.640625,3 3.78125,3 3.828125,3 3.890625,2.96875 3.890625,2.90625 Z m 0,0"
               id="path52" />
          </g>
        </g>
      </g>
      <g
         fill="#000000"
         fill-opacity="1"
         id="g36"
         transform="matrix(0.352778,0,0,0.352778,-0.192925,9.7028e-4)">
        <g
           id="use34"
           transform="translate(15.37,8.9659996)">
          <path
             d="m 5.671875,-4.875 c -0.390625,0.0625 -0.53125,0.359375 -0.53125,0.578125 0,0.296875 0.21875,0.390625 0.390625,0.390625 0.359375,0 0.609375,-0.3125 0.609375,-0.640625 0,-0.5 -0.578125,-0.71875 -1.078125,-0.71875 -0.71875,0 -1.125,0.71875 -1.234375,0.9375 -0.28125,-0.890625 -1.015625,-0.9375 -1.234375,-0.9375 -1.21875,0 -1.859375,1.5625 -1.859375,1.828125 0,0.046875 0.046875,0.109375 0.125,0.109375 0.09375,0 0.125,-0.078125 0.140625,-0.125 0.40625,-1.328125 1.21875,-1.578125 1.5625,-1.578125 0.53125,0 0.640625,0.5 0.640625,0.78125 0,0.265625 -0.078125,0.546875 -0.21875,1.125 L 2.578125,-1.5 c -0.171875,0.71875 -0.515625,1.375 -1.15625,1.375 -0.0625,0 -0.359375,0 -0.609375,-0.15625 C 1.25,-0.359375 1.34375,-0.71875 1.34375,-0.859375 1.34375,-1.09375 1.15625,-1.25 0.9375,-1.25 c -0.296875,0 -0.609375,0.265625 -0.609375,0.640625 0,0.5 0.5625,0.734375 1.078125,0.734375 0.578125,0 0.984375,-0.453125 1.234375,-0.953125 C 2.828125,-0.125 3.4375,0.125 3.875,0.125 5.09375,0.125 5.734375,-1.453125 5.734375,-1.703125 5.734375,-1.765625 5.6875,-1.8125 5.625,-1.8125 5.515625,-1.8125 5.5,-1.75 5.46875,-1.65625 5.140625,-0.609375 4.453125,-0.125 3.90625,-0.125 3.484375,-0.125 3.265625,-0.4375 3.265625,-0.921875 3.265625,-1.1875 3.3125,-1.375 3.5,-2.15625 L 3.921875,-3.796875 C 4.09375,-4.5 4.5,-5.03125 5.0625,-5.03125 c 0.015625,0 0.359375,0 0.609375,0.15625 z m 0,0"
             id="path56" />
        </g>
      </g>
      <g
         clip-path="url(#clipPath8013)"
         id="g42"
         transform="matrix(0.352778,0,0,0.352778,-0.192925,9.7028e-4)">
        <g
           fill="#000000"
           fill-opacity="1"
           id="g40">
          <g
             id="use38"
             transform="translate(22.021999,8.9659996)">
            <path
               d="M 3.375,-2.96875 C 3.375,-3.890625 3.25,-5.359375 2.578125,-6.75 1.875,-8.1875 0.890625,-8.96875 0.765625,-8.96875 c -0.046875,0 -0.109375,0.03125 -0.109375,0.09375 0,0.046875 0,0.0625 0.203125,0.265625 1.203125,1.203125 1.859375,3.1875 1.859375,5.625 0,2.3125 -0.5625,4.3125 -1.9375,5.71875 C 0.65625,2.84375 0.65625,2.875 0.65625,2.90625 0.65625,2.96875 0.71875,3 0.765625,3 0.921875,3 1.90625,2.140625 2.484375,0.96875 3.09375,-0.25 3.375,-1.546875 3.375,-2.96875 Z m 0,0"
               id="path60" />
          </g>
        </g>
      </g>
    </g>
    <g
       inkscape:label=""
       transform="translate(16.797289,43.672786)"
       id="g5979">
      <g
         fill="#000000"
         fill-opacity="1"
         id="g5955"
         transform="matrix(0.352778,0,0,0.352778,-0.192925,9.7028e-4)">
        <g
           id="g5953"
           transform="translate(0,8.9659996)">
          <path
             d="m 5.96875,-4.828125 c 0,-0.03125 -0.046875,-0.125 -0.046875,-0.171875 0,-0.015625 0,-0.015625 0.203125,-0.171875 l 1.171875,-0.90625 c 1.59375,-1.25 2.125,-1.671875 2.953125,-1.734375 0.07813,-0.015625 0.203125,-0.015625 0.203125,-0.21875 0,-0.078125 -0.04687,-0.125 -0.140625,-0.125 -0.125,0 -0.265625,0.015625 -0.40625,0.015625 H 9.453125 c -0.375,0 -0.765625,-0.015625 -1.125,-0.015625 -0.078125,0 -0.21875,0 -0.21875,0.203125 0,0.125 0.078125,0.140625 0.15625,0.140625 0.125,0 0.28125,0.0625 0.28125,0.21875 0,0.25 -0.359375,0.53125 -0.453125,0.59375 l -4.6875,3.65625 1,-3.953125 C 4.5,-7.703125 4.53125,-7.8125 5.375,-7.8125 c 0.234375,0 0.34375,0 0.34375,-0.234375 0,-0.109375 -0.125,-0.109375 -0.1875,-0.109375 -0.21875,0 -0.46875,0.015625 -0.6875,0.015625 H 3.4375 c -0.21875,0 -0.484375,-0.015625 -0.703125,-0.015625 -0.09375,0 -0.21875,0 -0.21875,0.21875 0,0.125 0.109375,0.125 0.28125,0.125 0.734375,0 0.734375,0.09375 0.734375,0.21875 0,0.03125 0,0.09375 -0.046875,0.28125 l -1.625,6.421875 C 1.75,-0.46875 1.734375,-0.34375 0.890625,-0.34375 c -0.21875,0 -0.34375,0 -0.34375,0.21875 C 0.546875,0 0.65625,0 0.734375,0 0.953125,0 1.1875,-0.03125 1.421875,-0.03125 h 1.40625 C 3.046875,-0.03125 3.296875,0 3.53125,0 3.625,0 3.75,0 3.75,-0.234375 3.75,-0.34375 3.640625,-0.34375 3.46875,-0.34375 c -0.734375,0 -0.734375,-0.09375 -0.734375,-0.21875 0,-0.078125 0.078125,-0.375 0.125,-0.578125 l 0.46875,-1.84375 1.8125,-1.421875 c 0.34375,0.765625 0.984375,2.296875 1.46875,3.46875 0.03125,0.0625 0.0625,0.140625 0.0625,0.21875 0,0.359375 -0.484375,0.375 -0.59375,0.375 -0.109375,0 -0.21875,0 -0.21875,0.21875 C 5.859375,0 5.984375,0 6.03125,0 6.4375,0 6.890625,-0.03125 7.296875,-0.03125 H 7.875 C 8.0625,-0.03125 8.265625,0 8.4375,0 8.515625,0 8.640625,0 8.640625,-0.234375 8.640625,-0.34375 8.53125,-0.34375 8.421875,-0.34375 7.96875,-0.359375 7.8125,-0.453125 7.640625,-0.890625 Z m 0,0"
             id="path5951" />
        </g>
      </g>
      <g
         clip-path="url(#clipPath2493)"
         id="g5963"
         transform="matrix(0.352778,0,0,0.352778,-0.192925,9.7028e-4)">
        <g
           fill="#000000"
           fill-opacity="1"
           id="g5961">
          <g
             id="g5959"
             transform="translate(10.818,8.9659996)">
            <path
               d="m 3.890625,2.90625 c 0,-0.03125 0,-0.0625 -0.203125,-0.265625 C 2.484375,1.4375 1.8125,-0.53125 1.8125,-2.96875 c 0,-2.328125 0.5625,-4.328125 1.953125,-5.734375 0.125,-0.109375 0.125,-0.125 0.125,-0.171875 0,-0.0625 -0.0625,-0.09375 -0.109375,-0.09375 -0.15625,0 -1.140625,0.859375 -1.71875,2.03125 -0.609375,1.21875 -0.890625,2.484375 -0.890625,3.96875 0,1.0625 0.171875,2.484375 0.78125,3.75 C 2.671875,2.21875 3.640625,3 3.78125,3 3.828125,3 3.890625,2.96875 3.890625,2.90625 Z m 0,0"
               id="path5957" />
          </g>
        </g>
      </g>
      <g
         fill="#000000"
         fill-opacity="1"
         id="g5969"
         transform="matrix(0.352778,0,0,0.352778,-0.192925,9.7028e-4)">
        <g
           id="g5967"
           transform="translate(15.37,8.9659996)">
          <path
             d="m 5.671875,-4.875 c -0.390625,0.0625 -0.53125,0.359375 -0.53125,0.578125 0,0.296875 0.21875,0.390625 0.390625,0.390625 0.359375,0 0.609375,-0.3125 0.609375,-0.640625 0,-0.5 -0.578125,-0.71875 -1.078125,-0.71875 -0.71875,0 -1.125,0.71875 -1.234375,0.9375 -0.28125,-0.890625 -1.015625,-0.9375 -1.234375,-0.9375 -1.21875,0 -1.859375,1.5625 -1.859375,1.828125 0,0.046875 0.046875,0.109375 0.125,0.109375 0.09375,0 0.125,-0.078125 0.140625,-0.125 0.40625,-1.328125 1.21875,-1.578125 1.5625,-1.578125 0.53125,0 0.640625,0.5 0.640625,0.78125 0,0.265625 -0.078125,0.546875 -0.21875,1.125 L 2.578125,-1.5 c -0.171875,0.71875 -0.515625,1.375 -1.15625,1.375 -0.0625,0 -0.359375,0 -0.609375,-0.15625 C 1.25,-0.359375 1.34375,-0.71875 1.34375,-0.859375 1.34375,-1.09375 1.15625,-1.25 0.9375,-1.25 c -0.296875,0 -0.609375,0.265625 -0.609375,0.640625 0,0.5 0.5625,0.734375 1.078125,0.734375 0.578125,0 0.984375,-0.453125 1.234375,-0.953125 C 2.828125,-0.125 3.4375,0.125 3.875,0.125 5.09375,0.125 5.734375,-1.453125 5.734375,-1.703125 5.734375,-1.765625 5.6875,-1.8125 5.625,-1.8125 5.515625,-1.8125 5.5,-1.75 5.46875,-1.65625 5.140625,-0.609375 4.453125,-0.125 3.90625,-0.125 3.484375,-0.125 3.265625,-0.4375 3.265625,-0.921875 3.265625,-1.1875 3.3125,-1.375 3.5,-2.15625 L 3.921875,-3.796875 C 4.09375,-4.5 4.5,-5.03125 5.0625,-5.03125 c 0.015625,0 0.359375,0 0.609375,0.15625 z m 0,0"
             id="path5965" />
        </g>
      </g>
      <g
         clip-path="url(#clipPath8013)"
         id="g5977"
         transform="matrix(0.352778,0,0,0.352778,-0.192925,9.7028e-4)">
        <g
           fill="#000000"
           fill-opacity="1"
           id="g5975">
          <g
             id="g5973"
             transform="translate(22.021999,8.9659996)">
            <path
               d="M 3.375,-2.96875 C 3.375,-3.890625 3.25,-5.359375 2.578125,-6.75 1.875,-8.1875 0.890625,-8.96875 0.765625,-8.96875 c -0.046875,0 -0.109375,0.03125 -0.109375,0.09375 0,0.046875 0,0.0625 0.203125,0.265625 1.203125,1.203125 1.859375,3.1875 1.859375,5.625 0,2.3125 -0.5625,4.3125 -1.9375,5.71875 C 0.65625,2.84375 0.65625,2.875 0.65625,2.90625 0.65625,2.96875 0.71875,3 0.765625,3 0.921875,3 1.90625,2.140625 2.484375,0.96875 3.09375,-0.25 3.375,-1.546875 3.375,-2.96875 Z m 0,0"
               id="path5971" />
          </g>
        </g>
      </g>
    </g>
    <text
       xml:space="preserve"
       style="font-size:4.9389px;font-family:arial;-inkscape-font-specification:arial;text-align:center;text-anchor:middle;fill:#000000;fill-opacity:1;stroke:none;stroke-width:0.529"
       x="68.37616"
       y="54.537582"
       id="text6007"><tspan
         sodipodi:role="line"
         id="tspan6005"
         style="stroke-width:0.529"
         x="68.37616"
         y="54.537582">downsample</tspan></text>
    <text
       xml:space="preserve"
       style="font-size:4.9389px;font-family:arial;-inkscape-font-specification:arial;text-align:center;text-anchor:middle;fill:#000000;fill-opacity:1;stroke:none;stroke-width:0.529"
       x="23.123615"
       y="12.204248"
       id="text6011"><tspan
         sodipodi:role="line"
         id="tspan6009"
         style="stroke-width:0.529"
         x="23.123615"
         y="12.204248">NN parameters</tspan></text>
    <path
       style="fill:none;stroke:#000000;stroke-width:0.529;marker-end:url(#marker3113)"
       d="M 88.635422,116.41667 H 123.03126"
       id="path6017" />
    <text
       xml:space="preserve"
       style="font-size:5.64444px;font-family:arial;-inkscape-font-specification:arial;text-align:center;text-anchor:middle;fill:none;stroke:#000000;stroke-width:0.529"
       x="107.82186"
       y="124.29905"
       id="text6021"><tspan
         sodipodi:role="line"
         id="tspan6019"
         style="font-size:5.64444px;fill:#000000;fill-opacity:1;stroke:none;stroke-width:0.529"
         x="107.82186"
         y="124.29905">forward solve</tspan></text>
    <text
       xml:space="preserve"
       style="font-style:normal;font-variant:normal;font-weight:bold;font-stretch:normal;font-size:4.9389px;font-family:arial;-inkscape-font-specification:'arial Bold';text-align:center;text-anchor:middle;fill:#fe0000;fill-opacity:1;stroke:none;stroke-width:0.529"
       x="190.5"
       y="10.583333"
       id="text6029"><tspan
         sodipodi:role="line"
         id="tspan6027"
         style="font-style:normal;font-variant:normal;font-weight:bold;font-stretch:normal;font-family:arial;-inkscape-font-specification:'arial Bold';fill:#fe0000;fill-opacity:1;stroke-width:0.529"
         x="190.5"
         y="10.583333">cheap</tspan></text>
    <text
       xml:space="preserve"
       style="font-style:normal;font-variant:normal;font-weight:bold;font-stretch:normal;font-size:4.9389px;font-family:arial;-inkscape-font-specification:'arial Bold';text-align:center;text-anchor:middle;fill:#fe0000;fill-opacity:1;stroke:none;stroke-width:0.529"
       x="171.97917"
       y="113.77083"
       id="text6033"><tspan
         sodipodi:role="line"
         id="tspan6031"
         style="font-style:normal;font-variant:normal;font-weight:bold;font-stretch:normal;font-family:arial;-inkscape-font-specification:'arial Bold';fill:#fe0000;fill-opacity:1;stroke-width:0.529"
         x="171.97917"
         y="113.77083">expensive</tspan></text>
    <path
       style="fill:#fe0000;fill-opacity:1;stroke:none;stroke-width:0.529"
       d="M 137.58333,121.70833 116.41667,127"
       id="path6200" />
    <path
       style="fill:none;fill-opacity:1;stroke:#ff0000;stroke-width:0.705556;stroke-dasharray:4.23333, 0.705556;stroke-dashoffset:0;stroke-opacity:1;marker-end:url(#marker6476)"
       d="m 158.75001,113.77084 c -10.13127,4.84453 -5.29167,13.22916 -13.22917,10.58333 -7.9375,-2.64583 -15.875,-2.64583 -15.875,-2.64583"
       id="path6256"
       sodipodi:nodetypes="czc" />
    <path
       style="fill:none;fill-opacity:1;stroke:#ff0000;stroke-width:0.705556;stroke-dasharray:4.23333, 0.705556;stroke-dashoffset:0;stroke-opacity:1;marker-end:url(#marker6476)"
       d="m 179.91667,10.583333 c -10.13127,4.84453 -2.64584,5.291667 -7.9375,7.9375 -5.29167,2.645834 -7.9375,2.645834 -7.9375,2.645834"
       id="path6603"
       sodipodi:nodetypes="czc" />
    <path
       style="fill:none;fill-opacity:1;stroke:#ff0000;stroke-width:0.705556;stroke-dasharray:4.23333, 0.705556;stroke-dashoffset:0;stroke-opacity:1;marker-end:url(#marker6476)"
       d="m 179.91667,10.583333 c -10.13127,4.84453 0,21.166667 -2.64584,34.395834 C 174.625,58.208333 161.39583,63.5 161.39583,63.5"
       id="path6609"
       sodipodi:nodetypes="czc" />
    <text
       xml:space="preserve"
       style="font-size:4.9389px;font-family:arial;-inkscape-font-specification:arial;text-align:center;text-anchor:middle;fill:#000000;fill-opacity:1;stroke:none;stroke-width:0.529"
       x="198.4375"
       y="39.6875"
       id="text6615"><tspan
         sodipodi:role="line"
         style="stroke-width:0.529"
         x="198.4375"
         y="39.6875"
         id="tspan6613">prediction</tspan></text>
    <g
       inkscape:label=""
       transform="translate(192.64422,42.869797)"
       id="g8247">
      <g
         clip-path="url(#clipPath5709)"
         id="g37"
         transform="matrix(0.352778,0,0,0.352778,-0.20395,9.7028e-4)">
        <g
           fill="#000000"
           fill-opacity="1"
           id="g35">
          <g
             id="use33"
             transform="translate(0,8.9659996)">
            <path
               d="m 5.09375,-0.078125 c 2.046875,-0.8125 3.578125,-3 3.578125,-5.15625 0,-1.96875 -1.28125,-3.1875 -2.953125,-3.1875 -2.5625,0 -5.140625,2.75 -5.140625,5.515625 0,1.875 1.234375,3.15625 2.96875,3.15625 0.40625,0 0.796875,-0.0625 1.1875,-0.171875 -0.078125,0.703125 -0.078125,0.765625 -0.078125,1 0,0.34375 0,1.234375 0.96875,1.234375 1.421875,0 1.9375,-2.234375 1.9375,-2.296875 0,-0.078125 -0.046875,-0.125 -0.109375,-0.125 -0.0625,0 -0.09375,0.0625 -0.125,0.1875 C 7.0625,0.84375 6.4375,1.265625 5.921875,1.265625 5.3125,1.265625 5.15625,0.84375 5.09375,-0.078125 Z M 2.9375,-0.125 C 2,-0.453125 1.546875,-1.453125 1.546875,-2.546875 c 0,-0.828125 0.3125,-2.421875 1.09375,-3.640625 0.890625,-1.359375 2.0625,-1.96875 3,-1.96875 1.25,0 2.078125,1.015625 2.078125,2.5625 0,0.890625 -0.421875,3.84375 -2.65625,5.15625 C 5,-1.046875 4.828125,-1.75 4.046875,-1.75 c -0.65625,0 -1.203125,0.640625 -1.203125,1.21875 0,0.140625 0.046875,0.3125 0.09375,0.40625 z M 4.75,-0.28125 c -0.421875,0.203125 -0.796875,0.265625 -1.125,0.265625 -0.125,0 -0.546875,0 -0.546875,-0.515625 0,-0.4375 0.421875,-0.984375 0.96875,-0.984375 0.59375,0 0.71875,0.40625 0.71875,1 0,0.078125 0,0.171875 -0.015625,0.234375 z m 0,0"
               id="path71" />
          </g>
        </g>
      </g>
      <g
         clip-path="url(#clipPath6731)"
         id="g8217"
         transform="matrix(0.352778,0,0,0.352778,-0.20395,9.7028e-4)">
        <g
           fill="#000000"
           fill-opacity="1"
           id="g8215">
          <g
             id="g8213"
             transform="translate(9.2709999,8.9659996)">
            <path
               d="m 3.890625,2.90625 c 0,-0.03125 0,-0.0625 -0.203125,-0.265625 C 2.484375,1.4375 1.8125,-0.53125 1.8125,-2.96875 c 0,-2.328125 0.5625,-4.328125 1.953125,-5.734375 0.125,-0.109375 0.125,-0.125 0.125,-0.171875 0,-0.0625 -0.0625,-0.09375 -0.109375,-0.09375 -0.15625,0 -1.140625,0.859375 -1.71875,2.03125 -0.609375,1.21875 -0.890625,2.484375 -0.890625,3.96875 0,1.0625 0.171875,2.484375 0.78125,3.75 C 2.671875,2.21875 3.640625,3 3.78125,3 3.828125,3 3.890625,2.96875 3.890625,2.90625 Z m 0,0"
               id="path75" />
          </g>
        </g>
      </g>
      <g
         fill="#000000"
         fill-opacity="1"
         id="g8222"
         transform="matrix(0.352778,0,0,0.352778,-0.20395,9.7028e-4)">
        <g
           id="g8220"
           transform="translate(13.824,8.9659996)">
          <path
             d="M 4.078125,-0.6875 C 4.234375,-0.03125 4.8125,0.125 5.09375,0.125 c 0.375,0 0.671875,-0.25 0.859375,-0.65625 0.203125,-0.4375 0.359375,-1.140625 0.359375,-1.171875 0,-0.0625 -0.046875,-0.109375 -0.125,-0.109375 -0.109375,0 -0.109375,0.0625 -0.15625,0.234375 C 5.8125,-0.75 5.59375,-0.125 5.109375,-0.125 4.75,-0.125 4.75,-0.515625 4.75,-0.671875 4.75,-0.9375 4.796875,-1.0625 4.90625,-1.5625 5,-1.890625 5.078125,-2.21875 5.15625,-2.546875 L 5.640625,-4.5 C 5.71875,-4.796875 5.71875,-4.8125 5.71875,-4.859375 c 0,-0.171875 -0.140625,-0.296875 -0.3125,-0.296875 -0.34375,0 -0.4375,0.296875 -0.5,0.609375 -0.125,0.453125 -0.765625,3.03125 -0.859375,3.453125 0,0 -0.46875,0.96875 -1.34375,0.96875 -0.625,0 -0.75,-0.53125 -0.75,-0.96875 0,-0.6875 0.34375,-1.640625 0.65625,-2.4375 C 2.75,-3.921875 2.8125,-4.078125 2.8125,-4.3125 c 0,-0.515625 -0.375,-0.953125 -0.953125,-0.953125 -1.09375,0 -1.53125,1.734375 -1.53125,1.828125 0,0.046875 0.046875,0.109375 0.125,0.109375 0.109375,0 0.125,-0.046875 0.171875,-0.21875 0.28125,-1.03125 0.75,-1.484375 1.203125,-1.484375 0.125,0 0.3125,0.015625 0.3125,0.390625 0,0.3125 -0.125,0.65625 -0.3125,1.109375 C 1.296875,-2.109375 1.25,-1.65625 1.25,-1.296875 1.25,-0.078125 2.15625,0.125 2.65625,0.125 c 0.765625,0 1.1875,-0.53125 1.421875,-0.8125 z m 0,0"
             id="path79" />
        </g>
      </g>
      <g
         clip-path="url(#clipPath3662)"
         id="g8228"
         transform="matrix(0.352778,0,0,0.352778,-0.20395,9.7028e-4)">
        <g
           fill="#000000"
           fill-opacity="1"
           id="g51">
          <g
             id="use49"
             transform="translate(20.486,8.9659996)">
            <path
               d="m 3.890625,2.90625 c 0,-0.03125 0,-0.0625 -0.203125,-0.265625 C 2.484375,1.4375 1.8125,-0.53125 1.8125,-2.96875 c 0,-2.328125 0.5625,-4.328125 1.953125,-5.734375 0.125,-0.109375 0.125,-0.125 0.125,-0.171875 0,-0.0625 -0.0625,-0.09375 -0.109375,-0.09375 -0.15625,0 -1.140625,0.859375 -1.71875,2.03125 -0.609375,1.21875 -0.890625,2.484375 -0.890625,3.96875 0,1.0625 0.171875,2.484375 0.78125,3.75 C 2.671875,2.21875 3.640625,3 3.78125,3 3.828125,3 3.890625,2.96875 3.890625,2.90625 Z m 0,0"
               id="path8224" />
          </g>
        </g>
      </g>
      <g
         fill="#000000"
         fill-opacity="1"
         id="g57"
         transform="matrix(0.352778,0,0,0.352778,-0.20395,9.7028e-4)">
        <g
           id="g8232"
           transform="translate(25.038,8.9659996)">
          <path
             d="m 5.671875,-4.875 c -0.390625,0.0625 -0.53125,0.359375 -0.53125,0.578125 0,0.296875 0.21875,0.390625 0.390625,0.390625 0.359375,0 0.609375,-0.3125 0.609375,-0.640625 0,-0.5 -0.578125,-0.71875 -1.078125,-0.71875 -0.71875,0 -1.125,0.71875 -1.234375,0.9375 -0.28125,-0.890625 -1.015625,-0.9375 -1.234375,-0.9375 -1.21875,0 -1.859375,1.5625 -1.859375,1.828125 0,0.046875 0.046875,0.109375 0.125,0.109375 0.09375,0 0.125,-0.078125 0.140625,-0.125 0.40625,-1.328125 1.21875,-1.578125 1.5625,-1.578125 0.53125,0 0.640625,0.5 0.640625,0.78125 0,0.265625 -0.078125,0.546875 -0.21875,1.125 L 2.578125,-1.5 c -0.171875,0.71875 -0.515625,1.375 -1.15625,1.375 -0.0625,0 -0.359375,0 -0.609375,-0.15625 C 1.25,-0.359375 1.34375,-0.71875 1.34375,-0.859375 1.34375,-1.09375 1.15625,-1.25 0.9375,-1.25 c -0.296875,0 -0.609375,0.265625 -0.609375,0.640625 0,0.5 0.5625,0.734375 1.078125,0.734375 0.578125,0 0.984375,-0.453125 1.234375,-0.953125 C 2.828125,-0.125 3.4375,0.125 3.875,0.125 5.09375,0.125 5.734375,-1.453125 5.734375,-1.703125 5.734375,-1.765625 5.6875,-1.8125 5.625,-1.8125 5.515625,-1.8125 5.5,-1.75 5.46875,-1.65625 5.140625,-0.609375 4.453125,-0.125 3.90625,-0.125 3.484375,-0.125 3.265625,-0.4375 3.265625,-0.921875 3.265625,-1.1875 3.3125,-1.375 3.5,-2.15625 L 3.921875,-3.796875 C 4.09375,-4.5 4.5,-5.03125 5.0625,-5.03125 c 0.015625,0 0.359375,0 0.609375,0.15625 z m 0,0"
             id="path8230" />
        </g>
      </g>
      <g
         clip-path="url(#clipPath6313)"
         id="g8245"
         transform="matrix(0.352778,0,0,0.352778,-0.20395,9.7028e-4)">
        <g
           fill="#000000"
           fill-opacity="1"
           id="g8243">
          <g
             id="g8237"
             transform="translate(31.690001,8.9659996)">
            <path
               d="M 3.375,-2.96875 C 3.375,-3.890625 3.25,-5.359375 2.578125,-6.75 1.875,-8.1875 0.890625,-8.96875 0.765625,-8.96875 c -0.046875,0 -0.109375,0.03125 -0.109375,0.09375 0,0.046875 0,0.0625 0.203125,0.265625 1.203125,1.203125 1.859375,3.1875 1.859375,5.625 0,2.3125 -0.5625,4.3125 -1.9375,5.71875 C 0.65625,2.84375 0.65625,2.875 0.65625,2.90625 0.65625,2.96875 0.71875,3 0.765625,3 0.921875,3 1.90625,2.140625 2.484375,0.96875 3.09375,-0.25 3.375,-1.546875 3.375,-2.96875 Z m 0,0"
               id="path8235" />
          </g>
          <g
             id="g8241"
             transform="translate(36.242538,8.9659996)">
            <path
               d="M 3.375,-2.96875 C 3.375,-3.890625 3.25,-5.359375 2.578125,-6.75 1.875,-8.1875 0.890625,-8.96875 0.765625,-8.96875 c -0.046875,0 -0.109375,0.03125 -0.109375,0.09375 0,0.046875 0,0.0625 0.203125,0.265625 1.203125,1.203125 1.859375,3.1875 1.859375,5.625 0,2.3125 -0.5625,4.3125 -1.9375,5.71875 C 0.65625,2.84375 0.65625,2.875 0.65625,2.90625 0.65625,2.96875 0.71875,3 0.765625,3 0.921875,3 1.90625,2.140625 2.484375,0.96875 3.09375,-0.25 3.375,-1.546875 3.375,-2.96875 Z m 0,0"
               id="path8239" />
          </g>
        </g>
      </g>
    </g>
    <g
       inkscape:label=""
       transform="translate(191.54492,100.55269)"
       id="g9542">
      <g
         clip-path="url(#clipPath5709)"
         id="g9500"
         transform="matrix(0.352778,0,0,0.352778,-0.20395,9.7028e-4)">
        <g
           fill="#000000"
           fill-opacity="1"
           id="g9498">
          <g
             id="g9496"
             transform="translate(0,8.9659996)">
            <path
               d="m 5.09375,-0.078125 c 2.046875,-0.8125 3.578125,-3 3.578125,-5.15625 0,-1.96875 -1.28125,-3.1875 -2.953125,-3.1875 -2.5625,0 -5.140625,2.75 -5.140625,5.515625 0,1.875 1.234375,3.15625 2.96875,3.15625 0.40625,0 0.796875,-0.0625 1.1875,-0.171875 -0.078125,0.703125 -0.078125,0.765625 -0.078125,1 0,0.34375 0,1.234375 0.96875,1.234375 1.421875,0 1.9375,-2.234375 1.9375,-2.296875 0,-0.078125 -0.046875,-0.125 -0.109375,-0.125 -0.0625,0 -0.09375,0.0625 -0.125,0.1875 C 7.0625,0.84375 6.4375,1.265625 5.921875,1.265625 5.3125,1.265625 5.15625,0.84375 5.09375,-0.078125 Z M 2.9375,-0.125 C 2,-0.453125 1.546875,-1.453125 1.546875,-2.546875 c 0,-0.828125 0.3125,-2.421875 1.09375,-3.640625 0.890625,-1.359375 2.0625,-1.96875 3,-1.96875 1.25,0 2.078125,1.015625 2.078125,2.5625 0,0.890625 -0.421875,3.84375 -2.65625,5.15625 C 5,-1.046875 4.828125,-1.75 4.046875,-1.75 c -0.65625,0 -1.203125,0.640625 -1.203125,1.21875 0,0.140625 0.046875,0.3125 0.09375,0.40625 z M 4.75,-0.28125 c -0.421875,0.203125 -0.796875,0.265625 -1.125,0.265625 -0.125,0 -0.546875,0 -0.546875,-0.515625 0,-0.4375 0.421875,-0.984375 0.96875,-0.984375 0.59375,0 0.71875,0.40625 0.71875,1 0,0.078125 0,0.171875 -0.015625,0.234375 z m 0,0"
               id="path9494" />
          </g>
        </g>
      </g>
      <g
         clip-path="url(#clipPath6731)"
         id="g9508"
         transform="matrix(0.352778,0,0,0.352778,-0.20395,9.7028e-4)">
        <g
           fill="#000000"
           fill-opacity="1"
           id="g9506">
          <g
             id="g9504"
             transform="translate(9.2709999,8.9659996)">
            <path
               d="m 3.890625,2.90625 c 0,-0.03125 0,-0.0625 -0.203125,-0.265625 C 2.484375,1.4375 1.8125,-0.53125 1.8125,-2.96875 c 0,-2.328125 0.5625,-4.328125 1.953125,-5.734375 0.125,-0.109375 0.125,-0.125 0.125,-0.171875 0,-0.0625 -0.0625,-0.09375 -0.109375,-0.09375 -0.15625,0 -1.140625,0.859375 -1.71875,2.03125 -0.609375,1.21875 -0.890625,2.484375 -0.890625,3.96875 0,1.0625 0.171875,2.484375 0.78125,3.75 C 2.671875,2.21875 3.640625,3 3.78125,3 3.828125,3 3.890625,2.96875 3.890625,2.90625 Z m 0,0"
               id="path9502" />
          </g>
        </g>
      </g>
      <g
         fill="#000000"
         fill-opacity="1"
         id="g9514"
         transform="matrix(0.352778,0,0,0.352778,-0.20395,9.7028e-4)">
        <g
           id="g9512"
           transform="translate(13.824,8.9659996)">
          <path
             d="M 4.078125,-0.6875 C 4.234375,-0.03125 4.8125,0.125 5.09375,0.125 c 0.375,0 0.671875,-0.25 0.859375,-0.65625 0.203125,-0.4375 0.359375,-1.140625 0.359375,-1.171875 0,-0.0625 -0.046875,-0.109375 -0.125,-0.109375 -0.109375,0 -0.109375,0.0625 -0.15625,0.234375 C 5.8125,-0.75 5.59375,-0.125 5.109375,-0.125 4.75,-0.125 4.75,-0.515625 4.75,-0.671875 4.75,-0.9375 4.796875,-1.0625 4.90625,-1.5625 5,-1.890625 5.078125,-2.21875 5.15625,-2.546875 L 5.640625,-4.5 C 5.71875,-4.796875 5.71875,-4.8125 5.71875,-4.859375 c 0,-0.171875 -0.140625,-0.296875 -0.3125,-0.296875 -0.34375,0 -0.4375,0.296875 -0.5,0.609375 -0.125,0.453125 -0.765625,3.03125 -0.859375,3.453125 0,0 -0.46875,0.96875 -1.34375,0.96875 -0.625,0 -0.75,-0.53125 -0.75,-0.96875 0,-0.6875 0.34375,-1.640625 0.65625,-2.4375 C 2.75,-3.921875 2.8125,-4.078125 2.8125,-4.3125 c 0,-0.515625 -0.375,-0.953125 -0.953125,-0.953125 -1.09375,0 -1.53125,1.734375 -1.53125,1.828125 0,0.046875 0.046875,0.109375 0.125,0.109375 0.109375,0 0.125,-0.046875 0.171875,-0.21875 0.28125,-1.03125 0.75,-1.484375 1.203125,-1.484375 0.125,0 0.3125,0.015625 0.3125,0.390625 0,0.3125 -0.125,0.65625 -0.3125,1.109375 C 1.296875,-2.109375 1.25,-1.65625 1.25,-1.296875 1.25,-0.078125 2.15625,0.125 2.65625,0.125 c 0.765625,0 1.1875,-0.53125 1.421875,-0.8125 z m 0,0"
             id="path9510" />
        </g>
      </g>
      <g
         clip-path="url(#clipPath3662)"
         id="g9522"
         transform="matrix(0.352778,0,0,0.352778,-0.20395,9.7028e-4)">
        <g
           fill="#000000"
           fill-opacity="1"
           id="g9520">
          <g
             id="g9518"
             transform="translate(20.486,8.9659996)">
            <path
               d="m 3.890625,2.90625 c 0,-0.03125 0,-0.0625 -0.203125,-0.265625 C 2.484375,1.4375 1.8125,-0.53125 1.8125,-2.96875 c 0,-2.328125 0.5625,-4.328125 1.953125,-5.734375 0.125,-0.109375 0.125,-0.125 0.125,-0.171875 0,-0.0625 -0.0625,-0.09375 -0.109375,-0.09375 -0.15625,0 -1.140625,0.859375 -1.71875,2.03125 -0.609375,1.21875 -0.890625,2.484375 -0.890625,3.96875 0,1.0625 0.171875,2.484375 0.78125,3.75 C 2.671875,2.21875 3.640625,3 3.78125,3 3.828125,3 3.890625,2.96875 3.890625,2.90625 Z m 0,0"
               id="path9516" />
          </g>
        </g>
      </g>
      <g
         fill="#000000"
         fill-opacity="1"
         id="g9528"
         transform="matrix(0.352778,0,0,0.352778,-0.20395,9.7028e-4)">
        <g
           id="g9526"
           transform="translate(25.038,8.9659996)">
          <path
             d="m 5.671875,-4.875 c -0.390625,0.0625 -0.53125,0.359375 -0.53125,0.578125 0,0.296875 0.21875,0.390625 0.390625,0.390625 0.359375,0 0.609375,-0.3125 0.609375,-0.640625 0,-0.5 -0.578125,-0.71875 -1.078125,-0.71875 -0.71875,0 -1.125,0.71875 -1.234375,0.9375 -0.28125,-0.890625 -1.015625,-0.9375 -1.234375,-0.9375 -1.21875,0 -1.859375,1.5625 -1.859375,1.828125 0,0.046875 0.046875,0.109375 0.125,0.109375 0.09375,0 0.125,-0.078125 0.140625,-0.125 0.40625,-1.328125 1.21875,-1.578125 1.5625,-1.578125 0.53125,0 0.640625,0.5 0.640625,0.78125 0,0.265625 -0.078125,0.546875 -0.21875,1.125 L 2.578125,-1.5 c -0.171875,0.71875 -0.515625,1.375 -1.15625,1.375 -0.0625,0 -0.359375,0 -0.609375,-0.15625 C 1.25,-0.359375 1.34375,-0.71875 1.34375,-0.859375 1.34375,-1.09375 1.15625,-1.25 0.9375,-1.25 c -0.296875,0 -0.609375,0.265625 -0.609375,0.640625 0,0.5 0.5625,0.734375 1.078125,0.734375 0.578125,0 0.984375,-0.453125 1.234375,-0.953125 C 2.828125,-0.125 3.4375,0.125 3.875,0.125 5.09375,0.125 5.734375,-1.453125 5.734375,-1.703125 5.734375,-1.765625 5.6875,-1.8125 5.625,-1.8125 5.515625,-1.8125 5.5,-1.75 5.46875,-1.65625 5.140625,-0.609375 4.453125,-0.125 3.90625,-0.125 3.484375,-0.125 3.265625,-0.4375 3.265625,-0.921875 3.265625,-1.1875 3.3125,-1.375 3.5,-2.15625 L 3.921875,-3.796875 C 4.09375,-4.5 4.5,-5.03125 5.0625,-5.03125 c 0.015625,0 0.359375,0 0.609375,0.15625 z m 0,0"
             id="path9524" />
        </g>
      </g>
      <g
         clip-path="url(#clipPath6313)"
         id="g9540"
         transform="matrix(0.352778,0,0,0.352778,-0.20395,9.7028e-4)">
        <g
           fill="#000000"
           fill-opacity="1"
           id="g9538">
          <g
             id="g9532"
             transform="translate(31.690001,8.9659996)">
            <path
               d="M 3.375,-2.96875 C 3.375,-3.890625 3.25,-5.359375 2.578125,-6.75 1.875,-8.1875 0.890625,-8.96875 0.765625,-8.96875 c -0.046875,0 -0.109375,0.03125 -0.109375,0.09375 0,0.046875 0,0.0625 0.203125,0.265625 1.203125,1.203125 1.859375,3.1875 1.859375,5.625 0,2.3125 -0.5625,4.3125 -1.9375,5.71875 C 0.65625,2.84375 0.65625,2.875 0.65625,2.90625 0.65625,2.96875 0.71875,3 0.765625,3 0.921875,3 1.90625,2.140625 2.484375,0.96875 3.09375,-0.25 3.375,-1.546875 3.375,-2.96875 Z m 0,0"
               id="path9530" />
          </g>
          <g
             id="g9536"
             transform="translate(36.242538,8.9659996)">
            <path
               d="M 3.375,-2.96875 C 3.375,-3.890625 3.25,-5.359375 2.578125,-6.75 1.875,-8.1875 0.890625,-8.96875 0.765625,-8.96875 c -0.046875,0 -0.109375,0.03125 -0.109375,0.09375 0,0.046875 0,0.0625 0.203125,0.265625 1.203125,1.203125 1.859375,3.1875 1.859375,5.625 0,2.3125 -0.5625,4.3125 -1.9375,5.71875 C 0.65625,2.84375 0.65625,2.875 0.65625,2.90625 0.65625,2.96875 0.71875,3 0.765625,3 0.921875,3 1.90625,2.140625 2.484375,0.96875 3.09375,-0.25 3.375,-1.546875 3.375,-2.96875 Z m 0,0"
               id="path9534" />
          </g>
        </g>
      </g>
    </g>
    <text
       xml:space="preserve"
       style="font-size:4.9389px;font-family:arial;-inkscape-font-specification:arial;text-align:center;text-anchor:middle;fill:#000000;fill-opacity:1;stroke:none;stroke-width:0.529"
       x="198.4375"
       y="97.895836"
       id="text9576"><tspan
         sodipodi:role="line"
         style="stroke-width:0.529"
         x="198.4375"
         y="97.895836"
         id="tspan9574">prediction</tspan></text>
    <text
       xml:space="preserve"
       style="font-style:normal;font-variant:normal;font-weight:bold;font-stretch:normal;font-size:8.46667px;font-family:arial;-inkscape-font-specification:'arial Bold';text-align:center;text-anchor:middle;fill:none;fill-opacity:1;stroke:#ff0000;stroke-width:0.705556;stroke-dasharray:4.23333, 0.705556;stroke-dashoffset:0;stroke-opacity:1"
       x="51.810776"
       y="82.864197"
       id="text9580"><tspan
         sodipodi:role="line"
         id="tspan9578"
         style="font-style:normal;font-variant:normal;font-weight:bold;font-stretch:normal;font-size:8.46667px;font-family:arial;-inkscape-font-specification:'arial Bold';fill:#000000;fill-opacity:1;stroke:none;stroke-width:0.705556;stroke-opacity:1"
         x="51.810776"
         y="82.864197">classical PDE method</tspan></text>
    <text
       xml:space="preserve"
       style="font-style:normal;font-variant:normal;font-weight:bold;font-stretch:normal;font-size:8.46667px;font-family:arial;-inkscape-font-specification:'arial Bold';text-align:center;text-anchor:middle;fill:none;fill-opacity:1;stroke:#ff0000;stroke-width:0.705556;stroke-dasharray:4.23333, 0.705556;stroke-dashoffset:0;stroke-opacity:1"
       x="108.47916"
       y="13.229167"
       id="text9584"><tspan
         sodipodi:role="line"
         id="tspan9582"
         style="font-style:normal;font-variant:normal;font-weight:bold;font-stretch:normal;font-size:8.46667px;font-family:arial;-inkscape-font-specification:'arial Bold';fill:#000000;fill-opacity:1;stroke:none;stroke-width:0.705556;stroke-opacity:1"
         x="108.47916"
         y="13.229167">PEDS</tspan></text>
    <g
       id="g10995"
       transform="translate(1.3229192,1.3229173)">
      <path
         style="fill:#ffffff;fill-opacity:1;stroke:#000000;stroke-width:0.705556;stroke-dasharray:none;stroke-dashoffset:0;stroke-opacity:1"
         d="m 60.854166,25.135416 7.9375,-2.645833"
         id="path10915" />
      <path
         style="fill:#ffffff;fill-opacity:1;stroke:#000000;stroke-width:0.705556;stroke-dasharray:none;stroke-dashoffset:0;stroke-opacity:1"
         d="m 60.854166,29.104166 7.9375,-2.645833"
         id="path10917" />
      <path
         style="fill:#ffffff;fill-opacity:1;stroke:#000000;stroke-width:0.705556;stroke-dasharray:none;stroke-dashoffset:0;stroke-opacity:1"
         d="m 60.854167,25.135417 7.9375,9.260416"
         id="path10919"
         sodipodi:nodetypes="cc" />
      <path
         style="fill:#ffffff;fill-opacity:1;stroke:#000000;stroke-width:0.705556;stroke-dasharray:none;stroke-dashoffset:0;stroke-opacity:1"
         d="m 60.854166,29.104166 7.9375,1.322917"
         id="path10921" />
      <path
         style="fill:#ffffff;fill-opacity:1;stroke:#000000;stroke-width:0.705556;stroke-dasharray:none;stroke-dashoffset:0;stroke-opacity:1"
         d="m 60.854166,25.135416 7.9375,1.322917"
         id="path10923" />
      <path
         style="fill:none;fill-opacity:1;stroke:#000000;stroke-width:0.705556;stroke-dasharray:none;stroke-dashoffset:0;stroke-opacity:1"
         d="m 76.729166,21.166666 -7.9375,1.322917 7.937501,2.645834"
         id="path10925" />
      <path
         style="fill:none;fill-opacity:1;stroke:#000000;stroke-width:0.705556;stroke-dasharray:none;stroke-dashoffset:0;stroke-opacity:1"
         d="m 68.791666,26.458333 7.9375,2.645833 -7.937499,1.322917"
         id="path10927" />
      <path
         style="fill:#ffffff;fill-opacity:1;stroke:#000000;stroke-width:0.705556;stroke-dasharray:none;stroke-dashoffset:0;stroke-opacity:1"
         d="m 68.791666,30.427083 7.9375,2.645833"
         id="path10929" />
      <path
         style="fill:#ffffff;fill-opacity:1;stroke:#000000;stroke-width:0.705556;stroke-dasharray:none;stroke-dashoffset:0;stroke-opacity:1"
         d="m 68.791666,26.458333 7.9375,-1.322917"
         id="path10931" />
      <path
         style="fill:#ffffff;fill-opacity:1;stroke:#000000;stroke-width:0.705556;stroke-dasharray:none;stroke-dashoffset:0;stroke-opacity:1"
         d="m 76.729167,21.166667 -7.9375,-2.645834"
         id="path10933"
         sodipodi:nodetypes="cc" />
      <path
         style="fill:none;fill-opacity:1;stroke:#000000;stroke-width:0.705556;stroke-dasharray:none;stroke-dashoffset:0;stroke-opacity:1"
         d="m 60.854167,25.135417 7.9375,-6.614584"
         id="path10935"
         sodipodi:nodetypes="cc" />
      <path
         style="fill:none;fill-opacity:1;stroke:#000000;stroke-width:0.705556;stroke-dasharray:none;stroke-dashoffset:0;stroke-opacity:1"
         d="m 76.729166,21.166666 -7.9375,1.322917 7.937501,2.645834"
         id="path10937" />
      <circle
         style="fill:#ffffff;fill-opacity:1;stroke:#000000;stroke-width:0.705556;stroke-dasharray:none;stroke-dashoffset:0;stroke-opacity:1"
         id="circle10941"
         cx="68.791664"
         cy="18.520834"
         r="1.3229166" />
      <path
         style="fill:#ffffff;fill-opacity:1;stroke:#000000;stroke-width:0.705556;stroke-dasharray:none;stroke-dashoffset:0;stroke-opacity:1"
         d="m 76.729167,25.135417 -7.9375,9.260416"
         id="path10943"
         sodipodi:nodetypes="cc" />
      <path
         style="fill:none;fill-opacity:1;stroke:#000000;stroke-width:0.705556;stroke-dasharray:none;stroke-dashoffset:0;stroke-opacity:1"
         d="m 56.885416,25.135416 h 3.96875"
         id="path10945" />
      <path
         style="fill:none;fill-opacity:1;stroke:#000000;stroke-width:0.705556;stroke-dasharray:none;stroke-dashoffset:0;stroke-opacity:1"
         d="m 60.854166,29.104166 h -3.96875"
         id="path10947" />
      <path
         style="fill:none;fill-opacity:1;stroke:#000000;stroke-width:0.705556;stroke-dasharray:none;stroke-dashoffset:0;stroke-opacity:1"
         d="m 76.729166,21.166666 h 5.291666"
         id="path10949" />
      <path
         style="fill:none;fill-opacity:1;stroke:#000000;stroke-width:0.705556;stroke-dasharray:none;stroke-dashoffset:0;stroke-opacity:1"
         d="m 76.729166,25.135416 h 5.291666"
         id="path10951" />
      <path
         style="fill:none;fill-opacity:1;stroke:#000000;stroke-width:0.705556;stroke-dasharray:none;stroke-dashoffset:0;stroke-opacity:1"
         d="m 76.729166,29.104166 h 5.291666"
         id="path10953" />
      <path
         style="fill:none;fill-opacity:1;stroke:#000000;stroke-width:0.705556;stroke-dasharray:none;stroke-dashoffset:0;stroke-opacity:1"
         d="m 76.729166,33.072916 h 5.291666"
         id="path10955" />
      <circle
         style="fill:#ffffff;fill-opacity:1;stroke:#000000;stroke-width:0.705556;stroke-dasharray:none;stroke-dashoffset:0;stroke-opacity:1"
         id="circle10841"
         cx="60.854168"
         cy="25.135416"
         r="1.3229166" />
      <circle
         style="fill:#ffffff;fill-opacity:1;stroke:#000000;stroke-width:0.705556;stroke-dasharray:none;stroke-dashoffset:0;stroke-opacity:1"
         id="circle10843"
         cx="60.854168"
         cy="29.104166"
         r="1.3229166" />
      <circle
         style="fill:#ffffff;fill-opacity:1;stroke:#000000;stroke-width:0.705556;stroke-dasharray:none;stroke-dashoffset:0;stroke-opacity:1"
         id="circle10847"
         cx="68.791664"
         cy="22.489584"
         r="1.3229166" />
      <circle
         style="fill:#ffffff;fill-opacity:1;stroke:#000000;stroke-width:0.705556;stroke-dasharray:none;stroke-dashoffset:0;stroke-opacity:1"
         id="circle10849"
         cx="68.791664"
         cy="26.458334"
         r="1.3229166" />
      <circle
         style="fill:#ffffff;fill-opacity:1;stroke:#000000;stroke-width:0.705556;stroke-dasharray:none;stroke-dashoffset:0;stroke-opacity:1"
         id="circle10851"
         cx="68.791664"
         cy="30.427084"
         r="1.3229166" />
      <circle
         style="fill:#ffffff;fill-opacity:1;stroke:#000000;stroke-width:0.705556;stroke-dasharray:none;stroke-dashoffset:0;stroke-opacity:1"
         id="circle10853"
         cx="76.729164"
         cy="21.166666"
         r="1.3229166" />
      <circle
         style="fill:#ffffff;fill-opacity:1;stroke:#000000;stroke-width:0.705556;stroke-dasharray:none;stroke-dashoffset:0;stroke-opacity:1"
         id="circle10855"
         cx="76.729164"
         cy="25.135416"
         r="1.3229166" />
      <circle
         style="fill:#ffffff;fill-opacity:1;stroke:#000000;stroke-width:0.705556;stroke-dasharray:none;stroke-dashoffset:0;stroke-opacity:1"
         id="circle10857"
         cx="76.729164"
         cy="29.104166"
         r="1.3229166" />
      <circle
         style="fill:#ffffff;fill-opacity:1;stroke:#000000;stroke-width:0.705556;stroke-dasharray:none;stroke-dashoffset:0;stroke-opacity:1"
         id="circle10859"
         cx="76.729164"
         cy="33.072918"
         r="1.3229166" />
      <circle
         style="fill:#ffffff;fill-opacity:1;stroke:#000000;stroke-width:0.705556;stroke-dasharray:none;stroke-dashoffset:0;stroke-opacity:1"
         id="circle10939"
         cx="68.791664"
         cy="34.395832"
         r="1.3229166" />
    </g>
    <text
       xml:space="preserve"
       style="font-style:normal;font-variant:normal;font-weight:bold;font-stretch:normal;font-size:4.93889px;font-family:arial;-inkscape-font-specification:'arial Bold';text-align:center;text-anchor:middle;fill:none;fill-opacity:1;stroke:#000000;stroke-width:0.705556;stroke-dasharray:none;stroke-dashoffset:0;stroke-opacity:1"
       x="60.854168"
       y="19.84375"
       id="text10963"><tspan
         sodipodi:role="line"
         id="tspan10961"
         style="font-size:4.93889px;fill:#000000;fill-opacity:1;stroke:none;stroke-width:0.705556"
         x="60.854168"
         y="19.84375">CNN</tspan></text>
    <rect
       style="fill:none;fill-opacity:1;stroke:none;stroke-width:0.705556;stroke-dasharray:none;stroke-dashoffset:0;stroke-opacity:1"
       id="rect14994"
       width="338.66669"
       height="169.33333"
       x="-63.5"
       y="-21.166666" />
    <rect
       style="fill:none;fill-opacity:1;stroke:none;stroke-width:0.705556;stroke-dasharray:none;stroke-dashoffset:0;stroke-opacity:1"
       id="rect16959"
       width="254"
       height="137.58333"
       x="-21.166666"
       y="-5.2916665" />
  </g>
</svg>
